<svg xmlns="http://www.w3.org/2000/svg" xmlns:xlink="http://www.w3.org/1999/xlink" width="541.3" height="495.4" viewBox="0 0 541.3 495.4">
  <defs>
    <style>
      .cls-1 {
        fill: #ed1c24;
      }

      .cls-14, .cls-2 {
        fill: none;
        stroke-miterlimit: 10;
      }

      .cls-2 {
        stroke: #fff;
        stroke-width: 4px;
      }

      .cls-3 {
        fill: url(#agua);
      }

      .cls-4 {
        fill: url(#erva);
      }

      .cls-5 {
        fill: url(#erva-2);
      }

      .cls-6 {
        fill: url(#madeira);
      }

      .cls-7 {
        fill: url(#linear-gradient);
      }

      .cls-8 {
        fill: url(#linear-gradient-2);
      }

      .cls-9 {
        fill: url(#linear-gradient-3);
      }

      .cls-10 {
        fill: url(#white_gradient);
      }

      .cls-11 {
        fill: url(#white_gradient-2);
      }

      .cls-12 {
        fill: url(#white_gradient-3);
      }

      .cls-13 {
        fill: url(#white_gradient-4);
      }

      .cls-14 {
        stroke: #ffcbb6;
      }

      .cls-15 {
        fill: #e67399;
      }

      .cls-16 {
        fill: #bc8e4a;
      }

      .cls-17 {
        fill: #ffcbb6;
      }

      .cls-18 {
        fill: #af4925;
      }

      .cls-19 {
        fill: url(#white_gradient-5);
      }

      .cls-20 {
        fill: url(#white_gradient-6);
      }

      .cls-21 {
        fill: url(#white_gradient-7);
      }

      .cls-22 {
        fill: url(#white_gradient-8);
      }

      .cls-23 {
        fill: #fff;
      }

      .cls-24 {
        fill: #999;
      }

      .cls-25 {
        fill: url(#agua-2);
      }
    </style>
    <linearGradient id="agua" x1="40.43" y1="441.75" x2="581.72" y2="441.75" gradientUnits="userSpaceOnUse">
      <stop offset="0" stop-color="#b1edc2"/>
      <stop offset="1" stop-color="#004c68"/>
    </linearGradient>
    <linearGradient id="erva" x1="432.66" y1="451.31" x2="557.71" y2="451.31" gradientUnits="userSpaceOnUse">
      <stop offset="0" stop-color="#dce477"/>
      <stop offset="1" stop-color="#4e6e0c"/>
    </linearGradient>
    <linearGradient id="erva-2" data-name="erva" x1="60.72" y1="423.66" x2="556.09" y2="423.66" xlink:href="#erva"/>
    <linearGradient id="madeira" x1="486.19" y1="318.11" x2="507.66" y2="318.11" gradientUnits="userSpaceOnUse">
      <stop offset="0" stop-color="#cca664"/>
      <stop offset="1" stop-color="#4e0e0c"/>
    </linearGradient>
    <linearGradient id="linear-gradient" x1="400.57" y1="181.17" x2="482.84" y2="181.17" xlink:href="#erva"/>
    <linearGradient id="linear-gradient-2" x1="441.7" y1="198.84" x2="515.28" y2="198.84" xlink:href="#erva"/>
    <linearGradient id="linear-gradient-3" x1="441.7" y1="158.86" x2="504.85" y2="158.86" xlink:href="#erva"/>
    <linearGradient id="white_gradient" data-name="white gradient" x1="175.72" y1="143.05" x2="364" y2="143.05" gradientUnits="userSpaceOnUse">
      <stop offset="0" stop-color="#fff"/>
      <stop offset="1" stop-color="#b3b3b3"/>
    </linearGradient>
    <linearGradient id="white_gradient-2" x1="135.28" y1="92.5" x2="164.28" y2="92.5" xlink:href="#white_gradient"/>
    <linearGradient id="white_gradient-3" x1="270.61" y1="182.16" x2="307.72" y2="182.16" xlink:href="#white_gradient"/>
    <linearGradient id="white_gradient-4" x1="276.72" y1="103.16" x2="322.72" y2="103.16" xlink:href="#white_gradient"/>
    <linearGradient id="white_gradient-5" x1="39.2" y1="424" x2="52.13" y2="424" xlink:href="#white_gradient"/>
    <linearGradient id="white_gradient-6" x1="288.2" y1="424" x2="301.13" y2="424" xlink:href="#white_gradient"/>
    <linearGradient id="white_gradient-7" x1="299.2" y1="320" x2="312.13" y2="320" xlink:href="#white_gradient"/>
    <linearGradient id="white_gradient-8" x1="31.28" y1="327" x2="312.28" y2="327" xlink:href="#white_gradient"/>
    <linearGradient id="agua-2" data-name="agua" x1="128.28" y1="343.5" x2="142.28" y2="343.5" xlink:href="#agua"/>
  </defs>
  <title>advent-svg</title>
  <g id="flag-ad">
    <g>
      <rect class="cls-1" x="383" y="206.2" width="47.3" height="32.84"/>
      <line class="cls-2" x1="400.6" y1="206.2" x2="400.6" y2="239"/>
      <line class="cls-2" x1="383" y1="222.6" x2="430.3" y2="222.6"/>
    </g>
  </g>
  <g id="danmark">
    <path id="lake" class="cls-3" d="M566.7,338.7s15,28,15,50-.6,77.7-10,91c-27,38-120,79-146,81s-168-33-184-14-130,28-148,21-64-11-51-42-10-110,97-137,153,20,206-17,40-50,93-47,42-13,73-11S566.7,338.7,566.7,338.7Z" transform="translate(-40.4 -74.7)"/>
    <g id="ground-ad">
      <path class="cls-4" d="M551.6,375.4c-19.5,1.1-79,6.4-89.9,32.3-13,31-34,30-28,64a445.1,445.1,0,0,0,11.8,50.2,41.8,41.8,0,0,1,1.6,5.9c35.1-14.3,83.7-41.8,101.4-67.8,8.4-12.3,9.2-62.9,9.2-85.2A48.2,48.2,0,0,1,551.6,375.4Z" transform="translate(-40.4 -74.7)"/>
      <path class="cls-5" d="M430.1,532l-38.3-18.9a6.4,6.4,0,0,1-2.3-9.7l18.8-24.9a6.3,6.3,0,0,0,1.3-4.1l-.8-25.8a7,7,0,0,0-1.2-3.5L391,420.8a6.5,6.5,0,0,1,4.7-10.2l29.9-2.7a6.9,6.9,0,0,0,3.7-1.6l17.6-15.2a6.4,6.4,0,0,0,2.2-6.1l-3-16.9a6.5,6.5,0,0,1,9.5-6.8l12.9,7.1a6.9,6.9,0,0,0,4.7.7l32.6-8a5.5,5.5,0,0,0,3.2-1.9l18-19.3a6.5,6.5,0,0,1,10.7,1.8l5.4,12.4a6.7,6.7,0,0,0,5.5,3.9l3.1.2c1.1.1,2.8.2,4.4.5-3.7-17.3-12.2-33.9-12.2-33.9s-22-22.1-50.5-24-18.3,13.4-67,10.6-36.7,9.6-85.4,45-90.9-9.5-189.1,16.3S74.7,474.4,62.8,504.1s30.3,33.6,46.8,40.3,121.2-1.9,135.9-20.1,145.1,15.3,169,13.4c4.1-.3,9.9-1.8,17-4.1A3.8,3.8,0,0,0,430.1,532Z" transform="translate(-40.4 -74.7)"/>
    </g>
    <g id="tree-ad">
      <path class="cls-6" d="M486.2,284.2s10.6,18.5,7.9,37.6-7.9,27-7.9,27l18,3.2s-5.8-21.7-3.2-27.5,3.2-35,6.4-36.1S486.2,284.2,486.2,284.2Z" transform="translate(-40.4 -74.7)"/>
      <circle class="cls-7" cx="441.7" cy="181.2" r="41.1"/>
      <circle class="cls-8" cx="478.5" cy="198.8" r="36.8"/>
      <circle class="cls-9" cx="473.3" cy="158.9" r="31.6"/>
    </g>
  </g>
  <g id="plain">
    <path class="cls-10" d="M231.7,146.7l99-33s30-7,33,9-19,24-19,24l-95.9,25.8c-5.3,1.4-26.6,1.8-32.1,1.2l-41-7,3-26,26,13Z" transform="translate(-40.4 -74.7)"/>
    <polygon class="cls-11" points="164.3 79 135.3 92 142.3 106 164.3 79"/>
    <path class="cls-12" d="M307.7,144.7l-17,65s-5,10-9,10c-13,0-11-63-11-63Z" transform="translate(-40.4 -74.7)"/>
    <path class="cls-13" d="M311.7,119.7l11-44.2s-10-3-15,2.3-31,53.9-31,53.9Z" transform="translate(-40.4 -74.7)"/>
    <circle cx="191.8" cy="86.5" r="3.5"/>
    <circle cx="204.8" cy="82.5" r="3.5"/>
    <circle cx="217.8" cy="78.5" r="3.5"/>
    <circle cx="232.8" cy="73.5" r="3.5"/>
    <circle cx="246.8" cy="69.5" r="3.5"/>
    <circle cx="261.8" cy="65.5" r="3.5"/>
    <circle cx="277.8" cy="59.5" r="3.5"/>
    <path d="M350.8,112.6" transform="translate(-40.4 -74.7)"/>
    <path d="M339.7,123.7l6,7a30.8,30.8,0,0,0,7-5l8.3-8.5s-.7-1.6-4.5-3l-3.8-1.5-5,5A62.2,62.2,0,0,1,339.7,123.7Z" transform="translate(-40.4 -74.7)"/>
  </g>
  <g id="girl-ad">
    <g>
      <line class="cls-14" x1="86" y1="415.7" x2="86" y2="431.9"/>
      <line class="cls-14" x1="114.4" y1="415.6" x2="114.4" y2="431.9"/>
      <path class="cls-15" d="M128.8,318.4,94.1,469.7s11.4,20.4,43.4,22.6,44.7-18,44.7-18L144.4,318.4l-4.9,2.8a5.5,5.5,0,0,1-5.8,0Z" transform="translate(-40.4 -74.7)"/>
      <path class="cls-16" d="M162.9,261.7c-9.9-9.3-36.3-10.9-48.1-.7S99,288.7,99.6,312.4s34.8,14.1,23.4,14.9c-4.3.3-6.7-5-7.9-12.2-3-3,9.2,10.3,22.5,10.6s26.6-12.3,25.6-11.2a41.6,41.6,0,0,1-6.2,12.8s11.5-4,18.1-8S172.8,270.9,162.9,261.7Z" transform="translate(-40.4 -74.7)"/>
      <path class="cls-17" d="M164.9,296.6c-1.8-16.7-12.2-21.8-12.2-21.8l-1.3-8.9-6.6,8.9s-23.8-2.6-27.7,6c-2.5,5.3-4,22.4-2,34.3a33.7,33.7,0,0,0,48.1-.6A45.5,45.5,0,0,0,164.9,296.6Z" transform="translate(-40.4 -74.7)"/>
      <path class="cls-18" d="M128.7,307.5a11,11,0,0,0,4.1,4.2,12.1,12.1,0,0,0,5.5,1.6,13.7,13.7,0,0,0,2.9-.2,8.5,8.5,0,0,0,2.6-1.1,11.9,11.9,0,0,0,3.8-4.5,9.1,9.1,0,0,1-3.3,5.1,9.7,9.7,0,0,1-2.9,1.4,10.9,10.9,0,0,1-3.1.3,12.1,12.1,0,0,1-5.9-1.9A9,9,0,0,1,128.7,307.5Z" transform="translate(-40.4 -74.7)"/>
    </g>
  </g>
  <g id="table-group-ad">
    <g id="table-ad">
      <polygon class="cls-19" points="39.4 376 39.2 472 52.1 472 52.1 376 39.4 376"/>
      <polygon class="cls-20" points="288.4 376 288.2 472 301.1 472 301.1 376 288.4 376"/>
      <polygon class="cls-21" points="299.4 272 299.2 368 312.1 368 312.1 272 299.4 272"/>
      <polygon class="cls-22" points="31.3 382 169.3 281 312.3 272 302.3 382 31.3 382"/>
    </g>
    <polygon class="cls-23" points="169.3 314 130.3 346.7 232.3 353 224.3 314 169.3 314"/>
    <polygon class="cls-23" points="252.3 324 269.3 324 290.3 341 229.3 350 233.3 324 252.3 324"/>
    <g id="computer-ad">
      <polygon class="cls-24" points="179.3 295 198.3 320 251.3 301 253.3 253 218.3 241 217.3 283 179.3 295"/>
      <polygon points="221.3 247 220.3 283 247.3 297 248.3 256 221.3 247"/>
    </g>
    <polygon class="cls-25" points="128.3 320 130.3 368 142.3 368 135.3 319 128.3 320"/>
  </g>
</svg>
