<svg id="svg-scouts" xmlns="http://www.w3.org/2000/svg" xmlns:xlink="http://www.w3.org/1999/xlink" viewBox="0 0 742.4 401.2">
  <defs>
    <style>
      .friend-cls-1 {
        fill: url(#friend-madeira);
      }

      .friend-cls-2 {
        fill: url(#friend-linear-gradient);
      }

      .friend-cls-3 {
        fill: url(#friend-linear-gradient-2);
      }

      .friend-cls-4 {
        fill: url(#friend-linear-gradient-3);
      }

      .friend-cls-5 {
        fill: url(#friend-madeira-2);
      }

      .friend-cls-6 {
        fill: url(#friend-linear-gradient-4);
      }

      .friend-cls-7 {
        fill: url(#friend-linear-gradient-5);
      }

      .friend-cls-8 {
        fill: url(#friend-linear-gradient-6);
      }

      .friend-cls-9 {
        fill: url(#friend-grass);
      }

      .friend-cls-10 {
        fill: none;
        stroke: #ffcbb6;
        stroke-miterlimit: 10;
      }

      .friend-cls-11 {
        fill: #e67399;
      }

      .friend-cls-12 {
        fill: #bc8e4a;
      }

      .friend-cls-13 {
        fill: #ffcbb6;
      }

      .friend-cls-14 {
        fill: #af4925;
      }

      .friend-cls-15 {
        fill: blue;
      }

      .friend-cls-16 {
        fill: url(#friend-madeira-3);
      }

      .friend-cls-17 {
        fill: #f1906c;
      }

      .friend-cls-18 {
        fill: #c69c6d;
      }

      .friend-cls-19 {
        fill: url(#friend-madeira-4);
      }

      .friend-cls-20 {
        fill: #a84492;
      }

      .friend-cls-21 {
        fill: #42210b;
      }

      .friend-cls-22 {
        fill: url(#friend-madeira-5);
      }

      .friend-cls-23 {
        fill: #5da59e;
      }

      .friend-cls-24 {
        fill: #8c6239;
      }

      .friend-cls-25 {
        fill: url(#friend-madeira-6);
      }

      .friend-cls-26 {
        fill: #cccbcb;
      }

      .friend-cls-27 {
        fill: url(#friend-madeira-7);
      }

      .friend-cls-28 {
        fill: url(#friend-madeira-8);
      }

      .friend-cls-29 {
        fill: url(#friend-madeira-9);
      }

      .friend-cls-30 {
        fill: url(#friend-madeira-10);
      }

      .friend-cls-31 {
        fill: url(#friend-linear-gradient-7);
      }
    </style>
    <linearGradient id="friend-madeira" x1="235.5" y1="358.62" x2="272.56" y2="358.62" gradientUnits="userSpaceOnUse">
      <stop offset="0" stop-color="#cca664"/>
      <stop offset="1" stop-color="#4e0e0c"/>
    </linearGradient>
    <linearGradient id="friend-linear-gradient" x1="61.9" y1="93" x2="203.9" y2="93" gradientUnits="userSpaceOnUse">
      <stop offset="0" stop-color="#dce477"/>
      <stop offset="1" stop-color="#4e6e0c"/>
    </linearGradient>
    <linearGradient id="friend-linear-gradient-2" x1="132.9" y1="123.5" x2="259.9" y2="123.5" xlink:href="#friend-linear-gradient"/>
    <linearGradient id="friend-linear-gradient-3" x1="132.9" y1="54.5" x2="241.9" y2="54.5" xlink:href="#friend-linear-gradient"/>
    <linearGradient id="friend-madeira-2" data-name="friend-madeira" x1="490.37" y1="363.97" x2="520.66" y2="363.97" xlink:href="#friend-madeira"/>
    <linearGradient id="friend-linear-gradient-4" x1="389.06" y1="142.93" x2="492.85" y2="142.93" xlink:href="#friend-linear-gradient"/>
    <linearGradient id="friend-linear-gradient-5" x1="389.06" y1="86.54" x2="478.14" y2="86.54" xlink:href="#friend-linear-gradient"/>
    <linearGradient id="friend-linear-gradient-6" x1="331.03" y1="118" x2="447.08" y2="118" xlink:href="#friend-linear-gradient"/>
    <linearGradient id="friend-grass" x1="95.6" y1="479.95" x2="837.96" y2="479.95" xlink:href="#friend-linear-gradient"/>
    <linearGradient id="friend-madeira-3" data-name="friend-madeira" x1="358.21" y1="364.26" x2="363.24" y2="364.26" xlink:href="#friend-madeira"/>
    <linearGradient id="friend-madeira-4" data-name="friend-madeira" x1="489.28" y1="381.26" x2="494.31" y2="381.26" xlink:href="#friend-madeira"/>
    <linearGradient id="friend-madeira-5" data-name="friend-madeira" x1="334.85" y1="421.42" x2="339.88" y2="421.42" xlink:href="#friend-madeira"/>
    <linearGradient id="friend-madeira-6" data-name="friend-madeira" x1="432.23" y1="362.57" x2="437.26" y2="362.57" xlink:href="#friend-madeira"/>
    <linearGradient id="friend-madeira-7" data-name="friend-madeira" x1="513.54" y1="434" x2="518.65" y2="434" xlink:href="#friend-madeira"/>
    <linearGradient id="friend-madeira-8" data-name="friend-madeira" x1="407.62" y1="436.93" x2="444.79" y2="436.93" xlink:href="#friend-madeira"/>
    <linearGradient id="friend-madeira-9" data-name="friend-madeira" x1="384.91" y1="440.7" x2="474.51" y2="440.7" xlink:href="#friend-madeira"/>
    <linearGradient id="friend-madeira-10" data-name="friend-madeira" x1="384.84" y1="441.28" x2="470.88" y2="441.28" xlink:href="#friend-madeira"/>
    <linearGradient id="friend-linear-gradient-7" x1="403.37" y1="409.85" x2="455.1" y2="409.85" gradientUnits="userSpaceOnUse">
      <stop offset="0" stop-color="#fbb03b"/>
      <stop offset="1" stop-color="#c1272d"/>
    </linearGradient>
  </defs>
  <title>scouts-svg</title>
  <g id="tree2">
    <path class="friend-cls-1" d="M235.5,300.1s18.3,32,13.7,64.9-13.7,46.6-13.7,46.6l31.1,5.5s-10.1-37.5-5.5-47.5,5.5-60.3,11-62.2S235.5,300.1,235.5,300.1Z" transform="translate(-95.6 -158.1)"/>
    <circle class="friend-cls-2" cx="132.9" cy="93" r="71"/>
    <circle class="friend-cls-3" cx="196.4" cy="123.5" r="63.5"/>
    <circle class="friend-cls-4" cx="187.4" cy="54.5" r="54.5"/>
  </g>
  <g id="tree1">
    <path class="friend-cls-5" d="M490.4,316.2s14.9,26.1,11.2,53-11.2,38.1-11.2,38.1l25.4,4.5s-8.2-30.6-4.5-38.9,4.5-49.3,9-50.8S490.4,316.2,490.4,316.2Z" transform="translate(-95.6 -158.1)"/>
    <circle class="friend-cls-6" cx="441" cy="142.9" r="51.9"/>
    <circle class="friend-cls-7" cx="433.6" cy="86.5" r="44.5"/>
    <circle class="friend-cls-8" cx="389.1" cy="118" r="58"/>
  </g>
  <path class="friend-cls-9" d="M101.8,488.4a15.9,15.9,0,0,0,3.8,27.4c42.4,16.9,135,47.4,244.9,43.1,151-6,223.2-25.9,281.8-33.9,22.9-3.1,132.7,2.3,192.9,5.7,12.1.6,17.5-14.9,7.6-21.8C789,478.1,708.4,428.7,641,428c-98-1-317-31-379-27C216,403.9,138.6,459.7,101.8,488.4Z" transform="translate(-95.6 -158.1)"/>
  <g id="me">
    <line class="friend-cls-10" x1="260.7" y1="251.3" x2="260.7" y2="259"/>
    <line class="friend-cls-10" x1="274.3" y1="251.2" x2="274.3" y2="259"/>
    <path class="friend-cls-11" d="M357.5,343l-16.6,58.6s5.5,7.9,20.7,8.7,21.3-7,21.3-7l-18-60.3-2.3,1.1a3.4,3.4,0,0,1-2.8,0Z" transform="translate(-95.6 -158.1)"/>
    <path class="friend-cls-12" d="M373.7,315.7c-4.7-4.4-17.3-5.2-22.9-.4s-7.6,13.2-7.2,24.5,16.5,6.8,11.1,7.1c-2,.2-3.2-2.4-3.8-5.8-1.4-1.4,4.4,4.9,10.7,5.1s12.7-5.9,12.2-5.4a19.5,19.5,0,0,1-2.9,6.1,55.8,55.8,0,0,0,8.6-3.8C382.7,341.3,378.4,320.1,373.7,315.7Z" transform="translate(-95.6 -158.1)"/>
    <path class="friend-cls-13" d="M374.7,332.3c-.9-8-5.8-10.4-5.8-10.4l-.7-4.2-3.1,4.2s-11.3-1.2-13.2,2.9c-1.2,2.5-1.9,10.7-1,16.3a16,16,0,0,0,11.3,4.7,15.8,15.8,0,0,0,11.6-5A20.4,20.4,0,0,0,374.7,332.3Z" transform="translate(-95.6 -158.1)"/>
    <path class="friend-cls-14" d="M357.4,337.5A5.8,5.8,0,0,0,362,340a4.3,4.3,0,0,0,2.5-.5,7.3,7.3,0,0,0,1.9-2,4,4,0,0,1-1.4,2.6,4.1,4.1,0,0,1-1.5.7,3.9,3.9,0,0,1-1.5.2,5.6,5.6,0,0,1-2.9-1A3.9,3.9,0,0,1,357.4,337.5Z" transform="translate(-95.6 -158.1)"/>
    <path class="friend-cls-15" d="M365.9,346.2l1.2.5a2,2,0,0,1,.9.7l.6.8c-1,2.9-.8,5.2-2.7,8.8a73.8,73.8,0,0,0-4,9v5l-2-5-3,3s2-3,2-5a15.6,15.6,0,0,0-3-10c-3-4-1-6-1-6l1.4-1s1.6,4,2.6,7a75.1,75.1,0,0,1,1.9,9.5s2.3-9.7,3.7-12.3c.1-.2.1-.5.2-.7Z" transform="translate(-95.6 -158.1)"/>
    <path class="friend-cls-16" d="M358.2,362.7a6.3,6.3,0,0,1,2.6-.2,4.2,4.2,0,0,1,2.4,1.1l-.7,2.5s-.3-.7-2.1-.7h-2.2Z" transform="translate(-95.6 -158.1)"/>
  </g>
  <g id="friend4" class="friends">
    <line class="friend-cls-10" x1="391.8" y1="268.3" x2="391.8" y2="276"/>
    <line class="friend-cls-10" x1="405.3" y1="268.2" x2="405.3" y2="276"/>
    <path class="friend-cls-17" d="M488.5,360,472,418.6s5.4,7.9,20.7,8.7,21.3-7,21.3-7L496,360l-2.4,1.1a3.2,3.2,0,0,1-2.7,0Z" transform="translate(-95.6 -158.1)"/>
    <path class="friend-cls-18" d="M510.4,339.4c-1.3-6.3-22.9-11.9-28.5-7.1s-10.2,12.5-9.9,23.8,16.1,16.7,5.2,15.9c-2.1-.1,5.4-10.5,4.8-13.9-1.4-1.4,4.4,4.9,10.7,5.1s12.7-5.9,12.2-5.4c-1.1,3.8,1.7,13,1.7,13s-7.4-.9-4.2-2.8S514,356.8,510.4,339.4Z" transform="translate(-95.6 -158.1)"/>
    <path class="friend-cls-13" d="M505.7,349.3c-.8-8-5.8-10.4-5.8-10.4l-1.4-.4-2.4.4s-11.3-1.2-13.1,2.9c-1.2,2.5-1.9,10.7-1,16.3a16,16,0,0,0,11.3,4.7,15.8,15.8,0,0,0,11.6-5A20.5,20.5,0,0,0,505.7,349.3Z" transform="translate(-95.6 -158.1)"/>
    <path class="friend-cls-14" d="M488.5,354.5a4.6,4.6,0,0,0,1.9,2,5.9,5.9,0,0,0,2.6.7l1.2-.2a3.3,3.3,0,0,0,1.2-.5,8,8,0,0,0,2.1-2,4.8,4.8,0,0,1-1.6,2.6,4.6,4.6,0,0,1-3,1.1,6.7,6.7,0,0,1-3-1A3.8,3.8,0,0,1,488.5,354.5Z" transform="translate(-95.6 -158.1)"/>
    <path class="friend-cls-15" d="M496.9,363.2l1.2.5a2.3,2.3,0,0,1,1,.7l.6.8c-1,2.9-.9,5.2-2.7,8.8a73.8,73.8,0,0,0-4,9v5l-2-5-3,3s2-3,2-5a15.6,15.6,0,0,0-3-10c-3-4-1-6-1-6l1.4-1s1.6,4,2.6,7a75.1,75.1,0,0,1,1.9,9.5s2.3-9.7,3.6-12.3l.3-.7Z" transform="translate(-95.6 -158.1)"/>
    <path class="friend-cls-19" d="M489.3,379.7a6.3,6.3,0,0,1,2.6-.2,4.2,4.2,0,0,1,2.4,1.1l-.8,2.5s-.3-.7-2-.7h-2.2Z" transform="translate(-95.6 -158.1)"/>
  </g>
  <g id="friend3" class="friends">
    <line class="friend-cls-10" x1="237.4" y1="308.4" x2="237.4" y2="316.1"/>
    <line class="friend-cls-10" x1="250.9" y1="308.4" x2="250.9" y2="316.1"/>
    <path class="friend-cls-20" d="M334.1,400.2l-16.5,58.6s5.4,7.8,20.7,8.7,21.3-7,21.3-7l-18.1-60.3-2.3,1.1a3.4,3.4,0,0,1-2.8,0Z" transform="translate(-95.6 -158.1)"/>
    <path class="friend-cls-21" d="M350.4,372.8c-4.8-4.4-17.3-5.2-23-.3s-7.5,13.2-7.2,24.5,5.7,16.1,7.8,15.9.1-11.2-.4-14.6c-1.5-1.5,4.4,4.9,10.7,5s12.7-5.8,12.2-5.3c-1.2,3.8-4,13.4-4,13.4a17.3,17.3,0,0,0,6.5-2.2C356.1,407.3,355.1,377.2,350.4,372.8Z" transform="translate(-95.6 -158.1)"/>
    <path class="friend-cls-13" d="M351.3,389.5c-.9-8-5.8-10.4-5.8-10.4l-1.5,2.3-2.3-2.3s-11.3-1.3-13.2,2.8-1.9,10.7-.9,16.4a16,16,0,0,0,11.3,4.7,15.8,15.8,0,0,0,11.6-5A20.5,20.5,0,0,0,351.3,389.5Z" transform="translate(-95.6 -158.1)"/>
    <path class="friend-cls-14" d="M334.1,394.7a3,3,0,0,0,2.1.8l2.3.2a8.5,8.5,0,0,0,2.3-.3,10.1,10.1,0,0,0,2.3-.7,4.8,4.8,0,0,1-2,1.5,7.5,7.5,0,0,1-2.6.5,10.9,10.9,0,0,1-2.5-.4l-1.2-.6C334.5,395.4,334.1,395.1,334.1,394.7Z" transform="translate(-95.6 -158.1)"/>
    <path class="friend-cls-15" d="M342.5,403.4l1.2.5a1.7,1.7,0,0,1,1,.7l.6.8c-1.1,2.9-.9,5.1-2.7,8.8a73.8,73.8,0,0,0-4,9v5l-2-5-3,3s2-3,2-5a15.6,15.6,0,0,0-3-10c-3-4-1-6-1-6l1.4-1.1s1.6,4.1,2.6,7.1a69.2,69.2,0,0,1,1.8,9.5s2.3-9.8,3.7-12.4l.3-.7Z" transform="translate(-95.6 -158.1)"/>
    <path class="friend-cls-22" d="M334.9,419.8a8.3,8.3,0,0,1,2.5-.2,4.8,4.8,0,0,1,2.5,1.2l-.8,2.4s-.3-.6-2-.7h-2.2Z" transform="translate(-95.6 -158.1)"/>
  </g>
  <g id="friend2" class="friends">
    <line class="friend-cls-10" x1="333.6" y1="251.3" x2="333.6" y2="259"/>
    <line class="friend-cls-10" x1="347.1" y1="251.2" x2="347.1" y2="259"/>
    <path class="friend-cls-23" d="M424.9,346l.5,60.1s4.5,5.9,7.9,5.7c15.3-.6,12.9-4.3,12.9-4.3l.7-60.3-7.6-1.9c-1,.4-7.8.5-8.7.1Z" transform="translate(-95.6 -158.1)"/>
    <path class="friend-cls-24" d="M446.5,315.7c-4.7-4.4-17.2-5.2-22.9-.4s-6.2.1-5.9,11.4,11.6,10.5,6.2,10.9c-2,.1,0,0-.6-3.4-1.4-1.5,4.8,11.8,11.2,12s12.7-5.9,12.2-5.4c-1.2,3.8.8-4.4.8-4.4a44.1,44.1,0,0,0,3.8-7.9C452.6,324.6,451.3,320.1,446.5,315.7Z" transform="translate(-95.6 -158.1)"/>
    <path class="friend-cls-13" d="M447.5,332.3c-.9-8-5.8-10.4-5.8-10.4l-1.3-.4-2.5.4s-11.3-1.2-13.2,2.9c-1.2,2.5-1.9,10.7-.9,16.3a15.9,15.9,0,0,0,22.9-.3A22.4,22.4,0,0,0,447.5,332.3Z" transform="translate(-95.6 -158.1)"/>
    <path class="friend-cls-14" d="M430.3,337.5c.2.9,1,1.2,1.8,1.3h2.4a14.6,14.6,0,0,0,4.8-1.4,8.7,8.7,0,0,1-2.1,1.7,7.3,7.3,0,0,1-5.3.4,3.5,3.5,0,0,1-1.3-.8A1.3,1.3,0,0,1,430.3,337.5Z" transform="translate(-95.6 -158.1)"/>
    <path class="friend-cls-15" d="M439.9,344.6l1.2.4a2.2,2.2,0,0,1,.9.7l.6.8c-1,2.9-.8,5.2-2.7,8.8a73.8,73.8,0,0,0-4,9v5l-2-5-3,3s2-3,2-5a15.6,15.6,0,0,0-3-10c-3-4-1-6-1-6l1.5-1s1.5,4,2.5,7a75.1,75.1,0,0,1,1.9,9.5s2.3-9.7,3.7-12.3a1.9,1.9,0,0,0,.2-.7Z" transform="translate(-95.6 -158.1)"/>
    <path class="friend-cls-25" d="M432.2,361a6.3,6.3,0,0,1,2.6-.2,4.7,4.7,0,0,1,2.5,1.1l-.8,2.5s-.3-.7-2.1-.7h-2.2Z" transform="translate(-95.6 -158.1)"/>
  </g>
  <g id="friend1" class="friends">
    <line class="friend-cls-10" x1="414.8" y1="322.7" x2="414.8" y2="330.4"/>
    <line class="friend-cls-10" x1="428.6" y1="322.7" x2="428.6" y2="330.4"/>
    <path class="friend-cls-26" d="M506.1,422.4l.5,55.2s4.6,5.8,8.1,5.7c.9-.1,2.4-23.1,3.2-23.1s2.3,22.7,3.5,22.5c8-1.2,6.4-3.8,6.4-3.8l.6-53.4c0-4-2.3-7.5-5.6-8.3l-2.1-.5c-.9.4-7.9.5-8.8.1l-1.7.2C507.9,417.3,506.1,419.6,506.1,422.4Z" transform="translate(-95.6 -158.1)"/>
    <path class="friend-cls-24" d="M525.7,389.2c-4.8-4.4-13.6-5.6-19.3-.7s-4.7.7-4.4,12.1,8.6,8.1,3.1,8.4c-2.1.2,0,0-.6-3.4-1.5-1.4,4.9,11.9,11.3,12s12.9-5.9,12.4-5.3c-1.1,3.8.9-4.5.9-4.5a44.1,44.1,0,0,0,3.8-7.9C534.2,396.1,530.4,393.6,525.7,389.2Z" transform="translate(-95.6 -158.1)"/>
    <path class="friend-cls-13" d="M529.1,403.7c-.9-7.9-5.9-10.4-5.9-10.4l-1.4-.4-2.5.4s-11.5-1.2-13.4,2.9c-1.2,2.5-1.9,10.7-1,16.4a16.7,16.7,0,0,0,23.3-.3A23,23,0,0,0,529.1,403.7Z" transform="translate(-95.6 -158.1)"/>
    <path class="friend-cls-14" d="M511.5,408.9a4.3,4.3,0,0,0,2.2.9h2.4l2.3-.2a10.5,10.5,0,0,0,2.3-.8,4.5,4.5,0,0,1-2.1,1.5,7.4,7.4,0,0,1-2.5.5,7.8,7.8,0,0,1-2.6-.4l-1.2-.6A1.6,1.6,0,0,1,511.5,408.9Z" transform="translate(-95.6 -158.1)"/>
    <path class="friend-cls-15" d="M521.3,416l1.2.4a2,2,0,0,1,1,.8l.6.7c-1,3-.8,5.2-2.7,8.8a67.8,67.8,0,0,0-4.1,9v5l-2-5-3.1,3s2.1-3,2.1-5a15.3,15.3,0,0,0-3.1-10c-3-4-1-6-1-6l1.4-1s1.7,4,2.7,7a75.6,75.6,0,0,1,1.9,9.6s2.3-9.8,3.7-12.4a1.4,1.4,0,0,0,.2-.7Z" transform="translate(-95.6 -158.1)"/>
    <path class="friend-cls-27" d="M513.5,432.4a6.6,6.6,0,0,1,2.7-.2,5.3,5.3,0,0,1,2.5,1.2l-.8,2.4s-.4-.7-2.1-.7h-2.3Z" transform="translate(-95.6 -158.1)"/>
  </g>
  <g id="fire">
    <path class="friend-cls-28" d="M408.3,419.8,433,462a12,12,0,0,0,11,0c6-3-24-48-24-48s-11-5-12-3S408.3,419.8,408.3,419.8Z" transform="translate(-95.6 -158.1)"/>
    <path class="friend-cls-29" d="M392,439l71,17s5,2,10-3-4-9-4-9l-77-19s-8,1-7,7S392,439,392,439Z" transform="translate(-95.6 -158.1)"/>
    <path class="friend-cls-30" d="M388,456l66-39s12-6,16,0-7,13-7,13l-65,36s-12,5-13,0S388,456,388,456Z" transform="translate(-95.6 -158.1)"/>
    <path class="friend-cls-31" d="M431.4,447.1s-17.5,3.4-23.3-5.8-6.7-19.2,0-30.9,9.1-27.5,9.1-27.5l5.9,13.3s8.3-3.3,8.3-10.8a29.8,29.8,0,0,0-3.3-13.4s8.3,7.5,11.7,18.4,17.5,20.8,15,37.5S431.4,447.1,431.4,447.1Z" transform="translate(-95.6 -158.1)"/>
  </g>
</svg>
