<svg xmlns="http://www.w3.org/2000/svg" xmlns:xlink="http://www.w3.org/1999/xlink" viewBox="0 0 464.3 433.6">
  <defs>
    <style>
      .insp-cls-1, .insp-cls-13, .insp-cls-17, .insp-cls-19 {
        fill: none;
        stroke-miterlimit: 10;
      }

      .insp-cls-1 {
        stroke: #ffcbb6;
      }

      .insp-cls-2 {
        fill: #e67399;
      }

      .insp-cls-3 {
        fill: #bc8e4a;
      }

      .insp-cls-4 {
        fill: #ffcbb6;
      }

      .insp-cls-5 {
        fill: #af4925;
      }

      .insp-cls-6 {
        fill: url(#insp-white_gradient);
      }

      .insp-cls-7 {
        fill: url(#insp-white_gradient-2);
      }

      .insp-cls-8 {
        fill: url(#insp-white_gradient-3);
      }

      .insp-cls-9 {
        fill: url(#insp-white_gradient-4);
      }

      .insp-cls-10 {
        fill: url(#insp-white_gradient-5);
      }

      .insp-cls-11 {
        fill: #b3b3b3;
      }

      .insp-cls-12 {
        fill: #e6e6e6;
      }

      .insp-cls-13, .insp-cls-17, .insp-cls-19 {
        stroke: #fff;
      }

      .insp-cls-13, .insp-cls-19 {
        stroke-width: 2px;
      }

      .insp-cls-14 {
        fill: url(#insp-white_gradient-6);
      }

      .insp-cls-15 {
        fill: #4d4d4d;
      }

      .insp-cls-16 {
        fill: url(#insp-white_gradient-7);
      }

      .insp-cls-18 {
        fill: #9e005d;
      }

      .insp-cls-19 {
        stroke-linecap: square;
      }

      .insp-cls-20 {
        fill: url(#insp-linear-gradient);
      }

      .insp-cls-21 {
        fill: url(#insp-linear-gradient-2);
      }

      .insp-cls-22 {
        fill: url(#insp-linear-gradient-3);
      }

      .insp-cls-23 {
        fill: url(#insp-linear-gradient-4);
      }

      .insp-cls-24 {
        fill: url(#insp-linear-gradient-5);
      }

      .insp-cls-25 {
        fill: url(#insp-linear-gradient-6);
      }

      .insp-cls-26 {
        fill: url(#insp-linear-gradient-7);
      }

      .insp-cls-27 {
        fill: url(#insp-linear-gradient-8);
      }

      .insp-cls-28 {
        fill: url(#insp-linear-gradient-9);
      }

      .insp-cls-29 {
        fill: url(#insp-linear-gradient-10);
      }

      .insp-cls-30 {
        fill: url(#insp-linear-gradient-11);
      }

      .insp-cls-31 {
        fill: url(#insp-linear-gradient-12);
      }

      .insp-cls-32 {
        fill: url(#insp-linear-gradient-13);
      }

      .insp-cls-33 {
        fill: url(#insp-linear-gradient-14);
      }

      .insp-cls-34 {
        fill: url(#insp-linear-gradient-15);
      }

      .insp-cls-35 {
        fill: url(#insp-linear-gradient-16);
      }

      .insp-cls-36 {
        fill: url(#insp-linear-gradient-17);
      }

      .insp-cls-37 {
        fill: url(#insp-linear-gradient-18);
      }

      .insp-cls-38 {
        fill: url(#insp-linear-gradient-19);
      }

      .insp-cls-39 {
        fill: url(#insp-linear-gradient-20);
      }

      .insp-cls-40 {
        fill: url(#insp-linear-gradient-21);
      }

      .insp-cls-41 {
        fill: url(#insp-linear-gradient-22);
      }

      .insp-cls-42 {
        fill: url(#insp-linear-gradient-23);
      }

      .insp-cls-43 {
        fill: url(#insp-linear-gradient-24);
      }

      .insp-cls-44 {
        fill: url(#insp-linear-gradient-25);
      }

      .insp-cls-45 {
        fill: url(#insp-linear-gradient-26);
      }

      .insp-cls-46 {
        fill: url(#insp-linear-gradient-27);
      }

      .insp-cls-47 {
        fill: url(#insp-linear-gradient-28);
      }

      .insp-cls-48 {
        fill: url(#insp-linear-gradient-29);
      }

      .insp-cls-49 {
        fill: url(#insp-linear-gradient-30);
      }

      .insp-cls-50 {
        fill: url(#insp-linear-gradient-31);
      }

      .insp-cls-51 {
        fill: url(#insp-linear-gradient-32);
      }

      .insp-cls-52 {
        fill: url(#insp-linear-gradient-33);
      }

      .insp-cls-53 {
        fill: url(#insp-linear-gradient-34);
      }

      .insp-cls-54 {
        fill: url(#insp-linear-gradient-35);
      }

      .insp-cls-55 {
        fill: url(#insp-linear-gradient-36);
      }

      .insp-cls-56 {
        fill: url(#insp-linear-gradient-37);
      }

      .insp-cls-57 {
        fill: url(#insp-linear-gradient-38);
      }

      .insp-cls-58 {
        fill: url(#insp-linear-gradient-39);
      }

      .insp-cls-59 {
        fill: url(#insp-linear-gradient-40);
      }

      .insp-cls-60 {
        fill: url(#insp-linear-gradient-41);
      }

      .insp-cls-61 {
        fill: url(#insp-linear-gradient-42);
      }

      .insp-cls-62 {
        fill: url(#insp-linear-gradient-43);
      }

      .insp-cls-63 {
        fill: url(#insp-linear-gradient-44);
      }

      .insp-cls-64 {
        fill: #fcee21;
      }

      .insp-cls-65 {
        fill: url(#insp-white_gradient-8);
      }

      .insp-cls-66 {
        fill: url(#insp-white_gradient-9);
      }

      .insp-cls-67 {
        fill: url(#insp-white_gradient-10);
      }

      .insp-cls-68 {
        fill: url(#insp-white_gradient-11);
      }

      .insp-cls-69 {
        fill: url(#insp-white_gradient-12);
      }

      .insp-cls-70 {
        fill: url(#insp-white_gradient-13);
      }

      .insp-cls-71 {
        fill: url(#insp-white_gradient-14);
      }

      .insp-cls-72 {
        fill: url(#insp-white_gradient-15);
      }

      .insp-cls-73 {
        fill: url(#insp-white_gradient-16);
      }

      .insp-cls-74 {
        fill: url(#insp-white_gradient-17);
      }

      .insp-cls-75 {
        fill: gray;
      }

      .insp-cls-76 {
        fill: url(#insp-white_gradient-18);
      }

      .insp-cls-77 {
        fill: #662d91;
      }

      .insp-cls-78 {
        fill: #00a99d;
      }

      .insp-cls-79 {
        fill: #c69c6d;
      }

      .insp-cls-80 {
        fill: #0071bc;
      }

      .insp-cls-81 {
        fill: #fbb03b;
      }

      .insp-cls-82 {
        fill: #666;
      }

      .insp-cls-83 {
        fill: #999;
      }

      .insp-cls-84 {
        fill: url(#insp-water);
      }
    </style>
    <linearGradient id="insp-white_gradient" data-name="white gradient" x1="46.45" y1="383.9" x2="62.45" y2="383.9" gradientUnits="userSpaceOnUse">
      <stop offset="0" stop-color="#fff"/>
      <stop offset="1" stop-color="#b3b3b3"/>
    </linearGradient>
    <linearGradient id="insp-white_gradient-2" x1="396.12" y1="383.9" x2="411.45" y2="383.9" xlink:href="#insp-white_gradient"/>
    <linearGradient id="insp-white_gradient-3" x1="338.73" y1="296.96" x2="354.06" y2="296.96" xlink:href="#insp-white_gradient"/>
    <linearGradient id="insp-white_gradient-4" x1="103.29" y1="296.96" x2="118.62" y2="296.96" xlink:href="#insp-white_gradient"/>
    <linearGradient id="insp-white_gradient-5" x1="44.45" y1="290.74" x2="410.59" y2="290.74" xlink:href="#insp-white_gradient"/>
    <linearGradient id="insp-white_gradient-6" x1="236.97" y1="188.56" x2="320.81" y2="188.56" gradientTransform="translate(-39.4 98.8) rotate(-16.3)" xlink:href="#insp-white_gradient"/>
    <linearGradient id="insp-white_gradient-7" x1="263.49" y1="232.86" x2="269.49" y2="232.86" gradientTransform="matrix(0.8, -0.59, 0.59, 0.8, -209.79, 103.69)" xlink:href="#insp-white_gradient"/>
    <linearGradient id="insp-linear-gradient" x1="154.55" y1="226.13" x2="238.34" y2="226.13" gradientUnits="userSpaceOnUse">
      <stop offset="0" stop-color="#ccc"/>
      <stop offset="1" stop-color="#999"/>
    </linearGradient>
    <linearGradient id="insp-linear-gradient-2" x1="185.56" y1="214.13" x2="185.56" y2="214.13" xlink:href="#insp-linear-gradient"/>
    <linearGradient id="insp-linear-gradient-3" x1="160.6" y1="234.46" x2="167.7" y2="234.46" gradientTransform="translate(146.5 -51.4) rotate(31.5)" xlink:href="#insp-linear-gradient"/>
    <linearGradient id="insp-linear-gradient-4" x1="164.75" y1="240.57" x2="169.65" y2="240.57" gradientTransform="translate(150.1 -52.1) rotate(31.5)" xlink:href="#insp-linear-gradient"/>
    <linearGradient id="insp-linear-gradient-5" x1="170.15" y1="237.27" x2="175.05" y2="237.27" gradientTransform="translate(149.2 -55.4) rotate(31.5)" xlink:href="#insp-linear-gradient"/>
    <linearGradient id="insp-linear-gradient-6" x1="174.95" y1="234.33" x2="179.85" y2="234.33" gradientTransform="translate(148.4 -58.3) rotate(31.5)" xlink:href="#insp-linear-gradient"/>
    <linearGradient id="insp-linear-gradient-7" x1="180.76" y1="230.78" x2="185.65" y2="230.78" gradientTransform="translate(147.4 -61.8) rotate(31.5)" xlink:href="#insp-linear-gradient"/>
    <linearGradient id="insp-linear-gradient-8" x1="186.16" y1="227.48" x2="191.06" y2="227.48" gradientTransform="translate(146.4 -65.2) rotate(31.5)" xlink:href="#insp-linear-gradient"/>
    <linearGradient id="insp-linear-gradient-9" x1="191.56" y1="224.17" x2="196.46" y2="224.17" gradientTransform="translate(145.5 -68.5) rotate(31.5)" xlink:href="#insp-linear-gradient"/>
    <linearGradient id="insp-linear-gradient-10" x1="196.76" y1="220.99" x2="201.66" y2="220.99" gradientTransform="translate(144.6 -71.6) rotate(31.5)" xlink:href="#insp-linear-gradient"/>
    <linearGradient id="insp-linear-gradient-11" x1="202.17" y1="217.69" x2="207.06" y2="217.69" gradientTransform="translate(143.7 -74.9) rotate(31.5)" xlink:href="#insp-linear-gradient"/>
    <linearGradient id="insp-linear-gradient-12" x1="207.57" y1="214.38" x2="212.47" y2="214.38" gradientTransform="translate(142.8 -78.2) rotate(31.5)" xlink:href="#insp-linear-gradient"/>
    <linearGradient id="insp-linear-gradient-13" x1="212.37" y1="211.45" x2="217.27" y2="211.45" gradientTransform="translate(141.9 -81.2) rotate(31.5)" xlink:href="#insp-linear-gradient"/>
    <linearGradient id="insp-linear-gradient-14" x1="217.97" y1="208.02" x2="222.87" y2="208.02" gradientTransform="translate(141 -84.6) rotate(31.5)" xlink:href="#insp-linear-gradient"/>
    <linearGradient id="insp-linear-gradient-15" x1="223.18" y1="204.84" x2="228.07" y2="204.84" gradientTransform="translate(140.1 -87.8) rotate(31.5)" xlink:href="#insp-linear-gradient"/>
    <linearGradient id="insp-linear-gradient-16" x1="166.96" y1="245.54" x2="171.86" y2="245.54" gradientTransform="translate(153.1 -52.5) rotate(31.5)" xlink:href="#insp-linear-gradient"/>
    <linearGradient id="insp-linear-gradient-17" x1="172.37" y1="242.24" x2="177.26" y2="242.24" gradientTransform="translate(152.1 -55.8) rotate(31.5)" xlink:href="#insp-linear-gradient"/>
    <linearGradient id="insp-linear-gradient-18" x1="177.17" y1="239.3" x2="182.07" y2="239.3" gradientTransform="translate(151.3 -58.7) rotate(31.5)" xlink:href="#insp-linear-gradient"/>
    <linearGradient id="insp-linear-gradient-19" x1="182.97" y1="235.75" x2="187.87" y2="235.75" gradientTransform="translate(150.3 -62.3) rotate(31.5)" xlink:href="#insp-linear-gradient"/>
    <linearGradient id="insp-linear-gradient-20" x1="188.37" y1="232.45" x2="193.27" y2="232.45" gradientTransform="translate(149.4 -65.6) rotate(31.5)" xlink:href="#insp-linear-gradient"/>
    <linearGradient id="insp-linear-gradient-21" x1="193.78" y1="229.14" x2="198.67" y2="229.14" gradientTransform="translate(148.4 -68.9) rotate(31.5)" xlink:href="#insp-linear-gradient"/>
    <linearGradient id="insp-linear-gradient-22" x1="198.98" y1="225.96" x2="203.88" y2="225.96" gradientTransform="translate(147.5 -72.1) rotate(31.5)" xlink:href="#insp-linear-gradient"/>
    <linearGradient id="insp-linear-gradient-23" x1="204.38" y1="222.66" x2="209.28" y2="222.66" gradientTransform="translate(146.6 -75.4) rotate(31.5)" xlink:href="#insp-linear-gradient"/>
    <linearGradient id="insp-linear-gradient-24" x1="209.78" y1="219.35" x2="214.68" y2="219.35" gradientTransform="translate(145.7 -78.7) rotate(31.5)" xlink:href="#insp-linear-gradient"/>
    <linearGradient id="insp-linear-gradient-25" x1="214.58" y1="216.42" x2="219.48" y2="216.42" gradientTransform="translate(144.8 -81.6) rotate(31.5)" xlink:href="#insp-linear-gradient"/>
    <linearGradient id="insp-linear-gradient-26" x1="220.19" y1="212.99" x2="225.09" y2="212.99" gradientTransform="translate(143.9 -85) rotate(31.5)" xlink:href="#insp-linear-gradient"/>
    <linearGradient id="insp-linear-gradient-27" x1="225.39" y1="209.81" x2="230.29" y2="209.81" gradientTransform="translate(143 -88.2) rotate(31.5)" xlink:href="#insp-linear-gradient"/>
    <linearGradient id="insp-linear-gradient-28" x1="169.18" y1="250.51" x2="174.08" y2="250.51" gradientTransform="translate(156 -52.9) rotate(31.5)" xlink:href="#insp-linear-gradient"/>
    <linearGradient id="insp-linear-gradient-29" x1="174.58" y1="247.21" x2="179.48" y2="247.21" gradientTransform="translate(155 -56.2) rotate(31.5)" xlink:href="#insp-linear-gradient"/>
    <linearGradient id="insp-linear-gradient-30" x1="179.38" y1="244.27" x2="184.28" y2="244.27" gradientTransform="translate(154.2 -59.1) rotate(31.5)" xlink:href="#insp-linear-gradient"/>
    <linearGradient id="insp-linear-gradient-31" x1="185.18" y1="240.72" x2="190.08" y2="240.72" gradientTransform="translate(153.2 -62.7) rotate(31.5)" xlink:href="#insp-linear-gradient"/>
    <linearGradient id="insp-linear-gradient-32" x1="190.59" y1="237.42" x2="195.49" y2="237.42" gradientTransform="translate(152.3 -66) rotate(31.5)" xlink:href="#insp-linear-gradient"/>
    <linearGradient id="insp-linear-gradient-33" x1="195.99" y1="234.11" x2="200.89" y2="234.11" gradientTransform="translate(151.4 -69.3) rotate(31.5)" xlink:href="#insp-linear-gradient"/>
    <linearGradient id="insp-linear-gradient-34" x1="201.19" y1="230.93" x2="206.09" y2="230.93" gradientTransform="translate(150.5 -72.5) rotate(31.5)" xlink:href="#insp-linear-gradient"/>
    <linearGradient id="insp-linear-gradient-35" x1="206.59" y1="227.63" x2="211.49" y2="227.63" gradientTransform="translate(149.5 -75.8) rotate(31.5)" xlink:href="#insp-linear-gradient"/>
    <linearGradient id="insp-linear-gradient-36" x1="212" y1="224.32" x2="216.9" y2="224.32" gradientTransform="translate(148.6 -79.1) rotate(31.5)" xlink:href="#insp-linear-gradient"/>
    <linearGradient id="insp-linear-gradient-37" x1="217.4" y1="217.9" x2="232.5" y2="217.9" gradientTransform="translate(146.8 -85.5) rotate(31.5)" xlink:href="#insp-linear-gradient"/>
    <linearGradient id="insp-linear-gradient-38" x1="199.15" y1="210.79" x2="206.13" y2="210.79" gradientTransform="translate(139.7 -74.7) rotate(31.5)" xlink:href="#insp-linear-gradient"/>
    <linearGradient id="insp-linear-gradient-39" x1="207.48" y1="205.4" x2="214.98" y2="205.4" gradientTransform="translate(138.2 -80.1) rotate(31.5)" xlink:href="#insp-linear-gradient"/>
    <linearGradient id="insp-linear-gradient-40" x1="215.41" y1="200.75" x2="222.39" y2="200.75" gradientTransform="translate(136.9 -84.7) rotate(31.5)" xlink:href="#insp-linear-gradient"/>
    <linearGradient id="insp-linear-gradient-41" x1="300.5" y1="272.77" x2="325.81" y2="272.77" gradientTransform="translate(-15.5 527.6) rotate(-78.9)" gradientUnits="userSpaceOnUse">
      <stop offset="0" stop-color="#b3b3b3"/>
      <stop offset="1" stop-color="#4d4d4d"/>
    </linearGradient>
    <linearGradient id="insp-linear-gradient-42" x1="316.11" y1="269.32" x2="321.23" y2="269.32" gradientTransform="translate(-170 415.8) rotate(-78.9)" xlink:href="#insp-linear-gradient-41"/>
    <linearGradient id="insp-linear-gradient-43" x1="320.32" y1="266.5" x2="323.29" y2="266.5" gradientTransform="translate(-170 415.8) rotate(-78.9)" xlink:href="#insp-linear-gradient-41"/>
    <linearGradient id="insp-linear-gradient-44" x1="313.33" y1="272.2" x2="316.7" y2="272.2" gradientTransform="translate(-170 415.8) rotate(-78.9)" xlink:href="#insp-linear-gradient-41"/>
    <linearGradient id="insp-white_gradient-8" x1="219.94" y1="76.24" x2="238.91" y2="76.24" xlink:href="#insp-white_gradient"/>
    <linearGradient id="insp-white_gradient-9" x1="219.94" y1="77.6" x2="238.91" y2="77.6" xlink:href="#insp-white_gradient"/>
    <linearGradient id="insp-white_gradient-10" x1="219.94" y1="79.18" x2="238.91" y2="79.18" xlink:href="#insp-white_gradient"/>
    <linearGradient id="insp-white_gradient-11" x1="219.94" y1="80.53" x2="238.91" y2="80.53" xlink:href="#insp-white_gradient"/>
    <linearGradient id="insp-white_gradient-12" x1="219.94" y1="81.89" x2="238.91" y2="81.89" xlink:href="#insp-white_gradient"/>
    <linearGradient id="insp-white_gradient-13" x1="219.94" y1="83.24" x2="238.91" y2="83.24" xlink:href="#insp-white_gradient"/>
    <linearGradient id="insp-white_gradient-14" x1="219.94" y1="84.6" x2="238.91" y2="84.6" xlink:href="#insp-white_gradient"/>
    <linearGradient id="insp-white_gradient-15" x1="220.51" y1="85.73" x2="238.63" y2="85.73" xlink:href="#insp-white_gradient"/>
    <linearGradient id="insp-white_gradient-16" x1="222.15" y1="88.1" x2="236.77" y2="88.1" xlink:href="#insp-white_gradient"/>
    <linearGradient id="insp-white_gradient-17" x1="465.21" y1="207.64" x2="549.04" y2="207.64" gradientTransform="translate(-37.9 150.3) rotate(-16.3)" xlink:href="#insp-white_gradient"/>
    <linearGradient id="insp-white_gradient-18" x1="337.18" y1="140.21" x2="343.18" y2="140.21" xlink:href="#insp-white_gradient"/>
    <linearGradient id="insp-water" x1="451.51" y1="191.55" x2="456.28" y2="191.55" gradientTransform="matrix(0.94, -0.33, 0.33, 0.94, -183.42, 48.9)" gradientUnits="userSpaceOnUse">
      <stop offset="0" stop-color="#b1edc2"/>
      <stop offset="1" stop-color="#004c68"/>
    </linearGradient>
  </defs>
  <title>insp-content</title>
  <g id="girl-ins">
    <g>
      <line class="insp-cls-1" x1="215.9" y1="348.7" x2="215.9" y2="364.8"/>
      <line class="insp-cls-1" x1="244.3" y1="348.5" x2="244.3" y2="364.8"/>
      <path class="insp-cls-2" d="M372.8,288.4,338.1,439.7s11.4,20.4,43.4,22.6,44.7-18,44.7-18L388.4,288.4l-4.9,2.8a5.5,5.5,0,0,1-5.8,0Z" transform="translate(-154.5 -111.7)"/>
      <path class="insp-cls-3" d="M406.9,231.7c-9.9-9.3-36.3-10.9-48.1-.7s-15.8,27.7-15.2,51.4,34.8,14.1,23.4,14.9c-4.3.3-6.7-5-7.9-12.2-3-3,9.2,10.3,22.5,10.6s26.6-12.3,25.6-11.2a41.6,41.6,0,0,1-6.2,12.8s11.5-4,18.1-8S416.8,240.9,406.9,231.7Z" transform="translate(-154.5 -111.7)"/>
      <path class="insp-cls-4" d="M408.9,266.6c-1.8-16.7-12.2-21.8-12.2-21.8l-1.3-8.9-6.6,8.9s-23.8-2.6-27.7,6c-2.5,5.3-4,22.4-2,34.3a33.7,33.7,0,0,0,48.1-.6A45.5,45.5,0,0,0,408.9,266.6Z" transform="translate(-154.5 -111.7)"/>
      <path class="insp-cls-5" d="M372.7,277.5a7.5,7.5,0,0,0,3.8,4,12.9,12.9,0,0,0,5.5,1.1,6.7,6.7,0,0,0,2.8-.3,13.9,13.9,0,0,0,2.6-1,13.7,13.7,0,0,0,4.2-3.8,11.8,11.8,0,0,1-3.8,4.5,10,10,0,0,1-5.8,1.6,11.8,11.8,0,0,1-5.8-1.4A6.7,6.7,0,0,1,372.7,277.5Z" transform="translate(-154.5 -111.7)"/>
    </g>
  </g>
  <g id="table-ins">
    <g>
      <rect class="insp-cls-6" x="46.5" y="334.2" width="16" height="99.39"/>
      <rect class="insp-cls-7" x="396.1" y="334.2" width="15.3" height="99.39"/>
      <rect class="insp-cls-8" x="338.7" y="247.3" width="15.3" height="99.39"/>
      <rect class="insp-cls-9" x="103.3" y="247.3" width="15.3" height="99.39"/>
      <polygon class="insp-cls-10" points="410.6 334.2 44.5 334.2 104 247.7 351.5 247.3 410.6 334.2"/>
    </g>
  </g>
  <g id="pc-ins">
    <rect class="insp-cls-11" x="174.2" y="228.9" width="106" height="58"/>
    <polyline class="insp-cls-11" points="173.2 286.9 168.2 263.9 286.2 262.9 279.2 286.9 173.2 286.9"/>
    <ellipse class="insp-cls-12" cx="226.7" cy="255.9" rx="6.5" ry="5"/>
  </g>
  <g id="code">
    <g id="js-code-ins">
      <path class="insp-cls-13" d="M189.1,281.7s-8.4-3.8-7,5.1a38.3,38.3,0,0,0,2.8,9.4c1.4,2.9.9,4.4-.5,7.3l-.7,1.5,2.3,1.7c3.7,2.6,3.8,7.7,4.7,13.4,0,.1,0,8.5,6.4,3" transform="translate(-154.5 -111.7)"/>
      <path class="insp-cls-13" d="M211,278.2s6.9-6.2,8.3,2.6a32.8,32.8,0,0,1,.2,9.8c-.3,3.3.5,4.5,2.8,6.9l1.2,1.2-1.8,2.3c-2.7,3.6-1.1,8.5-.2,14.2,0,.1,2.6,8-5.1,4.8" transform="translate(-154.5 -111.7)"/>
      <line class="insp-cls-13" x1="37.3" y1="178.8" x2="56.2" y2="175.7"/>
      <line class="insp-cls-13" x1="38.2" y1="184.1" x2="57.1" y2="181"/>
      <path class="insp-cls-13" d="M194.9,300.1" transform="translate(-154.5 -111.7)"/>
      <line class="insp-cls-13" x1="52.5" y1="186.4" x2="38.9" y2="188.6"/>
      <line class="insp-cls-13" x1="51" y1="191.3" x2="39.6" y2="193.2"/>
      <line class="insp-cls-13" x1="57.6" y1="194.2" x2="40.2" y2="196.9"/>
      <line class="insp-cls-13" x1="51.4" y1="199" x2="40.8" y2="200.7"/>
    </g>
    <g id="code-line-ins">
      <rect class="insp-cls-14" x="249.6" y="149.7" width="63" height="104" rx="12" ry="12" transform="translate(-206.8 -2.7) rotate(-20.1)"/>
      <rect class="insp-cls-15" x="255.7" y="162.9" width="50" height="78" transform="translate(-206.9 -2.8) rotate(-20.1)"/>
      <circle class="insp-cls-16" cx="142.9" cy="133" r="3"/>
      <line class="insp-cls-17" x1="96.6" y1="67.9" x2="133.9" y2="54.8"/>
      <line class="insp-cls-17" x1="99.6" y1="71.7" x2="111.7" y2="67.9"/>
      <line class="insp-cls-17" x1="101.5" y1="77.6" x2="135.8" y2="64.8"/>
      <line class="insp-cls-17" x1="104" y1="79.9" x2="118.6" y2="75.1"/>
      <line class="insp-cls-17" x1="104" y1="84" x2="138" y2="73"/>
      <line class="insp-cls-17" x1="106.7" y1="87.9" x2="139.6" y2="76.8"/>
      <line class="insp-cls-17" x1="108.5" y1="92.9" x2="141" y2="82.3"/>
      <line class="insp-cls-17" x1="110.2" y1="98.2" x2="132.3" y2="91"/>
      <line class="insp-cls-17" x1="111.7" y1="103.2" x2="143.5" y2="91.8"/>
      <line class="insp-cls-17" x1="112.8" y1="106.9" x2="144.6" y2="95.5"/>
      <line class="insp-cls-17" x1="114.3" y1="110.7" x2="134.7" y2="103.4"/>
      <line class="insp-cls-17" x1="115.2" y1="114.4" x2="141.7" y2="104.6"/>
      <line class="insp-cls-17" x1="116" y1="117.5" x2="142.5" y2="107.7"/>
      <line class="insp-cls-17" x1="117.6" y1="120.5" x2="144.1" y2="110.7"/>
      <line class="insp-cls-17" x1="118.6" y1="124.2" x2="133.9" y2="118.5"/>
      <line class="insp-cls-17" x1="119.9" y1="128.6" x2="154.3" y2="115.6"/>
      <line class="insp-cls-18" x1="121" y1="95.7" x2="153" y2="85.3"/>
    </g>
    <g id="h1-ins">
      <polyline class="insp-cls-19" points="117.7 181.9 105.4 185.9 112.9 195.2"/>
      <path class="insp-cls-19" d="M279.5,293l-2.9,8.1-2.9,8.1,3.5-5.4a5.7,5.7,0,0,1,6.2-2.5c1.5.4,2.6,1.5,2.1,3.8-1.9,8.2-3.9,9.9-3.9,9.9" transform="translate(-154.5 -111.7)"/>
      <polyline class="insp-cls-19" points="137.6 188.9 144.8 188.3 138.2 207"/>
      <polyline class="insp-cls-19" points="151.9 194 157 204.3 147.5 207.5"/>
    </g>
    <g id="html-ins">
      <polyline class="insp-cls-19" points="57 12 47.1 20.4 57.5 26.2"/>
      <path class="insp-cls-19" d="M233.7,139.5" transform="translate(-154.5 -111.7)"/>
      <polyline class="insp-cls-19" points="73.1 10.6 81.6 18.2 74 24.8"/>
      <line class="insp-cls-19" x1="70.9" y1="4.2" x2="61" y2="34.2"/>
    </g>
    <g id="keyboard-ins">
      <path class="insp-cls-20" d="M155.1,237.6,168,257.8a4.8,4.8,0,0,0,6.6,1.5l33-20.1,27.1-16.6a7.6,7.6,0,0,0,2.4-10.6l-11-17.3a5.5,5.5,0,0,0-7.5-1.6l-31.4,20.1L156.1,233A3.3,3.3,0,0,0,155.1,237.6Z" transform="translate(-154.5 -111.7)"/>
      <path class="insp-cls-21" d="M185.6,214.1" transform="translate(-154.5 -111.7)"/>
      <path class="insp-cls-22" d="M160.9,232.8h5.4a1.6,1.6,0,0,1,1.6,1.6v0a1.6,1.6,0,0,1-1.6,1.6h-3.8a1.6,1.6,0,0,1-1.6-1.6v-1.6a0,0,0,0,1,0,0Z" transform="translate(-252.7 8.5) rotate(-31.5)"/>
      <path class="insp-cls-23" d="M165.3,238.9h2.8a1.6,1.6,0,0,1,1.6,1.6v0a1.6,1.6,0,0,1-1.6,1.6h-1.2a1.6,1.6,0,0,1-1.6-1.6v-1.6A0,0,0,0,1,165.3,238.9Z" transform="translate(-255.5 11) rotate(-31.5)"/>
      <path class="insp-cls-24" d="M170.7,235.6h2.8a1.6,1.6,0,0,1,1.6,1.6v0a1.6,1.6,0,0,1-1.6,1.6h-1.2a1.6,1.6,0,0,1-1.6-1.6v-1.6A0,0,0,0,1,170.7,235.6Z" transform="translate(-252.9 13.3) rotate(-31.5)"/>
      <path class="insp-cls-25" d="M175.5,232.7h2.8a1.6,1.6,0,0,1,1.6,1.6v0a1.6,1.6,0,0,1-1.6,1.6h-1.2a1.6,1.6,0,0,1-1.6-1.6v-1.6A0,0,0,0,1,175.5,232.7Z" transform="translate(-250.7 15.4) rotate(-31.5)"/>
      <path class="insp-cls-26" d="M181.3,229.1h2.8a1.6,1.6,0,0,1,1.6,1.6v0a1.6,1.6,0,0,1-1.6,1.6h-1.2a1.6,1.6,0,0,1-1.6-1.6v-1.6A0,0,0,0,1,181.3,229.1Z" transform="translate(-248 17.9) rotate(-31.5)"/>
      <path class="insp-cls-27" d="M186.7,225.8h2.8a1.6,1.6,0,0,1,1.6,1.6v0a1.6,1.6,0,0,1-1.6,1.6h-1.2a1.6,1.6,0,0,1-1.6-1.6v-1.6a0,0,0,0,1,0,0Z" transform="translate(-245.5 20.3) rotate(-31.5)"/>
      <path class="insp-cls-28" d="M192.1,222.5h2.8a1.6,1.6,0,0,1,1.6,1.6v0a1.6,1.6,0,0,1-1.6,1.6h-1.2a1.6,1.6,0,0,1-1.6-1.6v-1.6a0,0,0,0,1,0,0Z" transform="matrix(0.85, -0.52, 0.52, 0.85, -242.97, 22.59)"/>
      <path class="insp-cls-29" d="M197.3,219.4h2.8a1.6,1.6,0,0,1,1.6,1.6v0a1.6,1.6,0,0,1-1.6,1.6h-1.2a1.6,1.6,0,0,1-1.6-1.6v-1.6a0,0,0,0,1,0,0Z" transform="translate(-240.5 24.8) rotate(-31.5)"/>
      <path class="insp-cls-30" d="M202.7,216h2.8a1.6,1.6,0,0,1,1.6,1.6v0a1.6,1.6,0,0,1-1.6,1.6h-1.2a1.6,1.6,0,0,1-1.6-1.6V216A0,0,0,0,1,202.7,216Z" transform="translate(-238 27.2) rotate(-31.5)"/>
      <path class="insp-cls-31" d="M208.1,212.7h2.8a1.6,1.6,0,0,1,1.6,1.6v0a1.6,1.6,0,0,1-1.6,1.6h-1.2a1.6,1.6,0,0,1-1.6-1.6v-1.6a0,0,0,0,1,0,0Z" transform="translate(-235.5 29.5) rotate(-31.5)"/>
      <path class="insp-cls-32" d="M212.9,209.8h2.8a1.6,1.6,0,0,1,1.6,1.6v0a1.6,1.6,0,0,1-1.6,1.6h-1.2a1.6,1.6,0,0,1-1.6-1.6v-1.6A0,0,0,0,1,212.9,209.8Z" transform="translate(-233.3 31.6) rotate(-31.5)"/>
      <path class="insp-cls-33" d="M218.5,206.4h2.8A1.6,1.6,0,0,1,223,208v0a1.6,1.6,0,0,1-1.6,1.6h-1.2a1.6,1.6,0,0,1-1.6-1.6v-1.6A0,0,0,0,1,218.5,206.4Z" transform="translate(-230.7 34) rotate(-31.5)"/>
      <path class="insp-cls-34" d="M223.7,203.2h2.8a1.6,1.6,0,0,1,1.6,1.6v0a1.6,1.6,0,0,1-1.6,1.6h-1.2a1.6,1.6,0,0,1-1.6-1.6v-1.6A0,0,0,0,1,223.7,203.2Z" transform="translate(-228.2 36.2) rotate(-31.5)"/>
      <path class="insp-cls-35" d="M167.5,243.9h2.8a1.6,1.6,0,0,1,1.6,1.6v0a1.6,1.6,0,0,1-1.6,1.6h-1.2a1.6,1.6,0,0,1-1.6-1.6v-1.6a0,0,0,0,1,0,0Z" transform="matrix(0.85, -0.52, 0.52, 0.85, -257.73, 12.9)"/>
      <path class="insp-cls-36" d="M172.9,240.6h2.8a1.6,1.6,0,0,1,1.6,1.6v0a1.6,1.6,0,0,1-1.6,1.6h-1.2a1.6,1.6,0,0,1-1.6-1.6v-1.6A0,0,0,0,1,172.9,240.6Z" transform="matrix(0.85, -0.52, 0.52, 0.85, -255.21, 15.23)"/>
      <path class="insp-cls-37" d="M177.7,237.7h2.8a1.6,1.6,0,0,1,1.6,1.6v0a1.6,1.6,0,0,1-1.6,1.6h-1.2a1.6,1.6,0,0,1-1.6-1.6v-1.6a0,0,0,0,1,0,0Z" transform="translate(-253 17.3) rotate(-31.5)"/>
      <path class="insp-cls-38" d="M183.5,234.1h2.8a1.6,1.6,0,0,1,1.6,1.6v0a1.6,1.6,0,0,1-1.6,1.6h-1.2a1.6,1.6,0,0,1-1.6-1.6v-1.6a0,0,0,0,1,0,0Z" transform="translate(-250.3 19.8) rotate(-31.5)"/>
      <path class="insp-cls-39" d="M188.9,230.8h2.8a1.6,1.6,0,0,1,1.6,1.6v0a1.6,1.6,0,0,1-1.6,1.6h-1.2a1.6,1.6,0,0,1-1.6-1.6v-1.6A0,0,0,0,1,188.9,230.8Z" transform="translate(-247.8 22.1) rotate(-31.5)"/>
      <path class="insp-cls-40" d="M194.3,227.5h2.8a1.6,1.6,0,0,1,1.6,1.6v0a1.6,1.6,0,0,1-1.6,1.6h-1.2a1.6,1.6,0,0,1-1.6-1.6v-1.6A0,0,0,0,1,194.3,227.5Z" transform="translate(-245.2 24.5) rotate(-31.5)"/>
      <path class="insp-cls-41" d="M199.5,224.3h2.8A1.6,1.6,0,0,1,204,226v0a1.6,1.6,0,0,1-1.6,1.6h-1.2a1.6,1.6,0,0,1-1.6-1.6v-1.6a0,0,0,0,1,0,0Z" transform="translate(-242.8 26.7) rotate(-31.5)"/>
      <path class="insp-cls-42" d="M204.9,221h2.8a1.6,1.6,0,0,1,1.6,1.6v0a1.6,1.6,0,0,1-1.6,1.6h-1.2a1.6,1.6,0,0,1-1.6-1.6V221A0,0,0,0,1,204.9,221Z" transform="translate(-240.3 29.1) rotate(-31.5)"/>
      <path class="insp-cls-43" d="M210.3,217.7h2.8a1.6,1.6,0,0,1,1.6,1.6v0a1.6,1.6,0,0,1-1.6,1.6H212a1.6,1.6,0,0,1-1.6-1.6v-1.6A0,0,0,0,1,210.3,217.7Z" transform="translate(-237.8 31.4) rotate(-31.5)"/>
      <path class="insp-cls-44" d="M215.1,214.8h2.8a1.6,1.6,0,0,1,1.6,1.6v0a1.6,1.6,0,0,1-1.6,1.6h-1.2a1.6,1.6,0,0,1-1.6-1.6v-1.6a0,0,0,0,1,0,0Z" transform="translate(-235.5 33.5) rotate(-31.5)"/>
      <path class="insp-cls-45" d="M220.7,211.3h2.8a1.6,1.6,0,0,1,1.6,1.6v0a1.6,1.6,0,0,1-1.6,1.6h-1.2a1.6,1.6,0,0,1-1.6-1.6v-1.6a0,0,0,0,1,0,0Z" transform="matrix(0.85, -0.52, 0.52, 0.85, -232.92, 35.89)"/>
      <path class="insp-cls-46" d="M225.9,208.2h2.8a1.6,1.6,0,0,1,1.6,1.6v0a1.6,1.6,0,0,1-1.6,1.6h-1.2a1.6,1.6,0,0,1-1.6-1.6v-1.6A0,0,0,0,1,225.9,208.2Z" transform="translate(-230.5 38.1) rotate(-31.5)"/>
      <path class="insp-cls-47" d="M169.7,248.9h2.8a1.6,1.6,0,0,1,1.6,1.6v0a1.6,1.6,0,0,1-1.6,1.6h-1.2a1.6,1.6,0,0,1-1.6-1.6v-1.6a0,0,0,0,1,0,0Z" transform="translate(-260 14.8) rotate(-31.5)"/>
      <path class="insp-cls-48" d="M175.1,245.6h2.8a1.6,1.6,0,0,1,1.6,1.6v0a1.6,1.6,0,0,1-1.6,1.6h-1.2a1.6,1.6,0,0,1-1.6-1.6v-1.6a0,0,0,0,1,0,0Z" transform="translate(-257.5 17.1) rotate(-31.5)"/>
      <path class="insp-cls-49" d="M179.9,242.6h2.8a1.6,1.6,0,0,1,1.6,1.6v0a1.6,1.6,0,0,1-1.6,1.6h-1.2a1.6,1.6,0,0,1-1.6-1.6v-1.6A0,0,0,0,1,179.9,242.6Z" transform="translate(-255.2 19.2) rotate(-31.5)"/>
      <path class="insp-cls-50" d="M185.7,239.1h2.8a1.6,1.6,0,0,1,1.6,1.6v0a1.6,1.6,0,0,1-1.6,1.6h-1.2a1.6,1.6,0,0,1-1.6-1.6v-1.6A0,0,0,0,1,185.7,239.1Z" transform="translate(-252.5 21.7) rotate(-31.5)"/>
      <path class="insp-cls-51" d="M191.1,235.8h2.8a1.6,1.6,0,0,1,1.6,1.6v0a1.6,1.6,0,0,1-1.6,1.6h-1.2a1.6,1.6,0,0,1-1.6-1.6v-1.6a0,0,0,0,1,0,0Z" transform="translate(-250 24) rotate(-31.5)"/>
      <path class="insp-cls-52" d="M196.5,232.5h2.8a1.6,1.6,0,0,1,1.6,1.6v0a1.6,1.6,0,0,1-1.6,1.6h-1.2a1.6,1.6,0,0,1-1.6-1.6v-1.6A0,0,0,0,1,196.5,232.5Z" transform="translate(-247.5 26.4) rotate(-31.5)"/>
      <path class="insp-cls-53" d="M201.7,229.3h2.8a1.6,1.6,0,0,1,1.6,1.6v0a1.6,1.6,0,0,1-1.6,1.6h-1.2a1.6,1.6,0,0,1-1.6-1.6v-1.6A0,0,0,0,1,201.7,229.3Z" transform="matrix(0.85, -0.52, 0.52, 0.85, -245.08, 28.61)"/>
      <path class="insp-cls-54" d="M207.1,226h2.8a1.6,1.6,0,0,1,1.6,1.6v0a1.6,1.6,0,0,1-1.6,1.6h-1.2a1.6,1.6,0,0,1-1.6-1.6V226A0,0,0,0,1,207.1,226Z" transform="translate(-242.6 30.9) rotate(-31.5)"/>
      <path class="insp-cls-55" d="M212.5,222.7h2.8a1.6,1.6,0,0,1,1.6,1.6v0a1.6,1.6,0,0,1-1.6,1.6h-1.2a1.6,1.6,0,0,1-1.6-1.6v-1.6a0,0,0,0,1,0,0Z" transform="translate(-240 33.3) rotate(-31.5)"/>
      <path class="insp-cls-56" d="M217.1,216.3h14.8a1.6,1.6,0,0,1,1.6,1.6v0a1.6,1.6,0,0,1-1.6,1.6H218.7a1.6,1.6,0,0,1-1.6-1.6v-1.6a0,0,0,0,1,0,0Z" transform="translate(-235.1 37.8) rotate(-31.5)"/>
      <path class="insp-cls-57" d="M201.1,208.8h3.5a1.6,1.6,0,0,1,1.6,1.6v.8a1.6,1.6,0,0,1-1.6,1.6h-4.3a1.6,1.6,0,0,1-1.6-1.6v0a2.4,2.4,0,0,1,2.4-2.4Z" transform="translate(-234.8 24.9) rotate(-31.5)"/>
      <path class="insp-cls-58" d="M208.7,203.4h3.9a2.5,2.5,0,0,1,2.5,2.5v0a1.5,1.5,0,0,1-1.5,1.5h-3.5a2.5,2.5,0,0,1-2.5-2.5v-.3a1.1,1.1,0,0,1,1.1-1.1Z" transform="translate(-230.7 28.7) rotate(-31.5)"/>
      <rect class="insp-cls-59" x="215.1" y="198.8" width="7.5" height="3.99" rx="2" ry="2" transform="translate(-227.1 32) rotate(-31.5)"/>
    </g>
    <g id="mouse-ins">
      <path class="insp-cls-60" d="M309.7,259.8s-8.5,3.6-7.7,7.6,6.1,15.4,6.1,15.4,4.6,5.1,10.4,2.3,4.5-11.3,4.5-11.3-5-10.7-8.1-12.8S309.7,259.8,309.7,259.8Z" transform="translate(-154.5 -111.7)"/>
      <polygon class="insp-cls-61" points="154.1 154.1 155.8 157.5 157.4 156.5 155.6 152.3 153.7 153.5 154.1 154.1"/>
      <line class="insp-cls-62" x1="154.5" y1="153" x2="152.3" y2="149.6"/>
      <line class="insp-cls-63" x1="156.5" y1="157.1" x2="158.8" y2="161"/>
    </g>
    <path id="sills-ins" class="insp-cls-15" d="M312.4,144.5a7.9,7.9,0,0,1,5.6,8.3,22,22,0,0,0,6.3-1.2,7.5,7.5,0,0,1-.4-5.7,7.9,7.9,0,0,1,9.9-5.3,7.5,7.5,0,0,1,2,1,22.6,22.6,0,0,0,1.3-3.3c.2-.6.3-1.2.5-1.8h-.7a8.1,8.1,0,0,1-5.3-10,8.5,8.5,0,0,1,3.6-4.5,20.4,20.4,0,0,0-4.2-5.1,7.8,7.8,0,0,1-8,2.1,7.9,7.9,0,0,1-5.6-7.2,20,20,0,0,0-6.4,1.1,7,7,0,0,1-.2,3.5,7.9,7.9,0,0,1-9.9,5.3l-.8-.3a21.6,21.6,0,0,0-2.2,4.9h.6a8,8,0,0,1,5.3,9.9,8.2,8.2,0,0,1-4.7,5.1,22.3,22.3,0,0,0,4.6,6A7.7,7.7,0,0,1,312.4,144.5Zm8.1-22.2a9.8,9.8,0,1,1-12.3,6.5A9.8,9.8,0,0,1,320.5,122.3Z" transform="translate(-154.5 -111.7)"/>
  </g>
  <g id="design-isn">
    <g id="idea-ins">
      <path class="insp-cls-64" d="M375.9,187.8s.2,2.7.5-5.3-5.7-10.7-6.1-16.1,2.8-14.3,13.2-14.6,13.7,8.9,13.6,14.6-4.2,5.8-4.9,12.4a94.1,94.1,0,0,0-.5,10.1Z" transform="translate(-154.5 -111.7)"/>
      <polygon class="insp-cls-65" points="221.3 75.8 219.9 77.1 238.9 76.7 237.1 75.3 221.3 75.8"/>
      <polygon class="insp-cls-66" points="219.9 77.1 219.9 78.5 238.9 78.5 238.9 76.7 219.9 77.1"/>
      <rect class="insp-cls-67" x="219.9" y="78.5" width="19" height="1.35"/>
      <rect class="insp-cls-68" x="219.9" y="79.9" width="19" height="1.35"/>
      <rect class="insp-cls-69" x="219.9" y="81.2" width="19" height="1.35"/>
      <rect class="insp-cls-70" x="219.9" y="82.6" width="19" height="1.35"/>
      <rect class="insp-cls-71" x="219.9" y="83.9" width="19" height="1.35"/>
      <polygon class="insp-cls-72" points="238.6 85.3 220.5 85.3 220.8 86.2 221.9 86.2 238 86.2 238.6 85.3"/>
      <polygon class="insp-cls-73" points="223.6 90 234.8 90 236.8 86.2 222.1 86.2 223.6 90"/>
      <polyline class="insp-cls-17" points="233 75.3 236.7 54.6 231.7 57.7 224.5 54.6 227.2 75.8"/>
    </g>
    <g id="tablet-ins">
      <rect class="insp-cls-74" x="475.6" y="155.6" width="63" height="104" rx="12" ry="12" transform="translate(-76.1 -245.4) rotate(16.3)"/>
      <rect class="insp-cls-75" x="481.6" y="168.5" width="50" height="78" transform="translate(-76.2 -245.3) rotate(16.3)"/>
      <circle class="insp-cls-76" cx="340.2" cy="140.2" r="3"/>
      <rect class="insp-cls-18" x="493.2" y="168.6" width="16.2" height="16.25" transform="translate(-85 -245) rotate(16.3)"/>
      <rect class="insp-cls-18" x="480.3" y="204.9" width="16.2" height="32.13" transform="translate(-73.1 -239.7) rotate(16.3)"/>
      <rect class="insp-cls-18" x="511.3" y="175.2" width="24.7" height="16.25" transform="translate(-82.3 -251) rotate(16.3)"/>
      <rect class="insp-cls-77" x="498.1" y="211.5" width="24.7" height="32.11" transform="translate(-70.4 -245.6) rotate(16.3)"/>
      <rect class="insp-cls-78" x="487.3" y="191.1" width="44.2" height="16.25" transform="translate(-78.4 -246.4) rotate(16.3)"/>
    </g>
    <g id="color-pink-ins">
      <polygon class="insp-cls-79" points="420.3 70 416.3 76.3 425 74.5 420.3 70"/>
      <polygon class="insp-cls-18" points="461.1 44.7 420.3 70 420.1 72.8 422.9 72.6 421.4 74.7 425 74.5 464.3 49.3 461.1 44.7"/>
      <path class="insp-cls-18" d="M572.7,187.7s-1.2-.9-.8-1.3" transform="translate(-154.5 -111.7)"/>
      <path class="insp-cls-79" d="M577.4,184.3l4.8-3.5,5-3.2,10-6.3,10-6.3,5-3.1c1.8-.9,3.5-1.9,5.3-2.7l-4.8,3.5-5,3.2-10,6.3-10,6.3-5,3.1C580.9,182.5,579.2,183.5,577.4,184.3Z" transform="translate(-154.5 -111.7)"/>
    </g>
    <g id="color-blue-ins">
      <polygon class="insp-cls-79" points="410.5 45.7 404.7 50.4 413.5 51.5 410.5 45.7"/>
      <polygon class="insp-cls-80" points="457.4 35.3 410.5 45.7 409.4 48.3 412.1 49 410 50.6 413.5 51.5 458.8 40.7 457.4 35.3"/>
      <path class="insp-cls-80" d="M561.1,162.3s-.9-1.1-.4-1.4" transform="translate(-154.5 -111.7)"/>
      <g>
        <line class="insp-cls-79" x1="412.1" y1="49" x2="458.2" y2="38.5"/>
        <path class="insp-cls-79" d="M566.6,160.8c1.9-.7,3.8-1.2,5.7-1.8l5.8-1.4,11.5-2.6,11.5-2.6,5.8-1.4,5.9-.8-5.7,1.8-5.8,1.3L589.8,156l-11.5,2.6-5.8,1.3Z" transform="translate(-154.5 -111.7)"/>
      </g>
    </g>
    <g id="color-yelow-ins">
      <polygon class="insp-cls-79" points="384.5 19.2 377.3 21.3 385 25.8 384.5 19.2"/>
      <polygon class="insp-cls-81" points="431.7 28 384.5 19.2 382.4 21.2 384.6 22.9 382.1 23.5 385 25.8 430.9 33.6 431.7 28"/>
      <path class="insp-cls-81" d="M533.4,133.9s-.3-1.4.3-1.5" transform="translate(-154.5 -111.7)"/>
      <g>
        <line class="insp-cls-79" x1="384.6" y1="22.9" x2="431.2" y2="31.3"/>
        <path class="insp-cls-79" d="M539.2,134.7l5.9.5,5.8,1.1,11.7,2,11.6,2.1,5.8,1.1c1.9.5,3.9.9,5.8,1.5l-5.9-.6-5.9-1-11.6-2.1-11.7-2.1-5.8-1Z" transform="translate(-154.5 -111.7)"/>
      </g>
    </g>
    <g id="pencil-ins">
      <polygon class="insp-cls-82" points="297.3 59.1 305.2 56.3 297.4 34.2 289.5 37 291.1 41.5 297.3 59.1"/>
      <polyline class="insp-cls-13" points="290.8 40.6 288.5 43.7 293.1 56.8"/>
      <polyline class="insp-cls-83" points="299 58.5 306.1 79.2 310.6 84.8 310.5 77.2 303.3 57"/>
      <line class="insp-cls-84" x1="306.1" y1="79.2" x2="310.6" y2="77.6"/>
    </g>
    <g id="draw-tablet-ins">
      <path class="insp-cls-82" d="M486.2,284.2h63.4a11.2,11.2,0,0,1,11.2,11.2v21a11.2,11.2,0,0,1-11.2,11.2H486.2a11.3,11.3,0,0,1-11.3-11.3v-21a11.2,11.2,0,0,1,11.2-11.2Z" transform="translate(-224.7 67.7) rotate(-18.4)"/>
      <rect class="insp-cls-15" x="483.7" y="293.4" width="69" height="29.48" transform="translate(-225.4 67.9) rotate(-18.4)"/>
      <rect class="insp-cls-15" x="479.4" y="297.8" width="13.4" height="3.83" transform="translate(-224.4 57.3) rotate(-18.4)"/>
      <rect class="insp-cls-15" x="532.1" y="280.2" width="13.4" height="3.83" transform="translate(-216.1 73.1) rotate(-18.4)"/>
      <rect class="insp-cls-15" x="493.5" y="289.1" width="37.5" height="3.83" transform="translate(-220.3 65.1) rotate(-18.4)"/>
      <polygon class="insp-cls-75" points="391 151.1 378.3 182.1 379.7 186.1 383.3 182.8 392.7 151.9 391 151.1"/>
      <path class="insp-cls-82" d="M532.9,293.8l1.3,4,3.7-3.3a4.2,4.2,0,0,1-2.9.2A9.7,9.7,0,0,1,532.9,293.8Z" transform="translate(-154.5 -111.7)"/>
    </g>
  </g>
</svg>
