<svg id="Layer_1" data-name="Layer 1" xmlns="http://www.w3.org/2000/svg" xmlns:xlink="http://www.w3.org/1999/xlink" viewBox="0 0 402 314.4">
  <defs>
    <style>
      .passio-cls-1 {
        fill: url(#passio-grass);
      }

      .passio-cls-2 {
        fill: none;
        stroke: #ffcbb6;
        stroke-miterlimit: 10;
      }

      .passio-cls-3 {
        fill: #e67399;
      }

      .passio-cls-4 {
        fill: #bc8e4a;
      }

      .passio-cls-5 {
        fill: #ffcbb6;
      }

      .passio-cls-6 {
        fill: #af4925;
      }

      .passio-cls-7 {
        fill: #8c6239;
      }

      .passio-cls-8 {
        fill: #5da59e;
      }

      .passio-cls-9 {
        fill: url(#passio-linear-gradient);
      }
    </style>
    <linearGradient id="passio-grass" x1="224.67" y1="478.49" x2="626.68" y2="478.49" gradientUnits="userSpaceOnUse">
      <stop offset="0" stop-color="#dce477"/>
      <stop offset="1" stop-color="#4e6e0c"/>
    </linearGradient>
    <linearGradient id="passio-linear-gradient" x1="369.22" y1="333.73" x2="406.72" y2="333.73" gradientUnits="userSpaceOnUse">
      <stop offset="0" stop-color="#ff80aa"/>
      <stop offset="0.13" stop-color="#fb78a1"/>
      <stop offset="0.34" stop-color="#f06288"/>
      <stop offset="0.6" stop-color="#df3f5f"/>
      <stop offset="0.91" stop-color="#c70f27"/>
      <stop offset="1" stop-color="#bf0015"/>
    </linearGradient>
  </defs>
  <title>passio-svg</title>
  <path id="ground-pass" class="passio-cls-1" d="M226.6,522.2s45.4,46,143.9,28,139.5-42,208-28,47.5-18,35.5-43.7c-15-32.2-96.8-77.4-189.9-75.9s-175,25.6-190,59.6S226.6,522.2,226.6,522.2Z" transform="translate(-224.7 -240)"/>
  <g id="girl-pass">
    <line class="passio-cls-2" x1="202.8" y1="236.4" x2="202.8" y2="252.6"/>
    <line class="passio-cls-2" x1="231.1" y1="236.3" x2="231.1" y2="252.6"/>
    <path class="passio-cls-3" d="M429.8,304.4,395.1,455.7s11.4,20.4,43.4,22.6,44.7-18,44.7-18L445.4,304.4l-4.9,2.8a5.5,5.5,0,0,1-5.8,0Z" transform="translate(-224.7 -240)"/>
    <path class="passio-cls-4" d="M463.9,247.7c-9.9-9.3-36.3-10.9-48.1-.7s-15.8,27.7-15.2,51.4,34.8,14.1,23.4,14.9c-4.3.3-6.7-5-7.9-12.2-3-3,9.2,10.3,22.5,10.6s26.6-12.3,25.6-11.2a41.6,41.6,0,0,1-6.2,12.8s11.5-4,18.1-8S473.8,256.9,463.9,247.7Z" transform="translate(-224.7 -240)"/>
    <path class="passio-cls-5" d="M465.9,282.6c-1.8-16.7-12.2-21.8-12.2-21.8l-1.3-8.9-6.6,8.9s-23.8-2.6-27.7,6c-2.5,5.3-4,22.4-2,34.3a33.7,33.7,0,0,0,48.1-.6A45.5,45.5,0,0,0,465.9,282.6Z" transform="translate(-224.7 -240)"/>
    <path class="passio-cls-6" d="M429.7,293.5a11,11,0,0,0,4.1,4.2,12.1,12.1,0,0,0,5.5,1.6,13.7,13.7,0,0,0,2.9-.2,8.5,8.5,0,0,0,2.6-1.1,11.9,11.9,0,0,0,3.8-4.5,9.1,9.1,0,0,1-3.3,5.1,9.7,9.7,0,0,1-2.9,1.4,10.9,10.9,0,0,1-3.1.3,12.1,12.1,0,0,1-5.9-1.9A9,9,0,0,1,429.7,293.5Z" transform="translate(-224.7 -240)"/>
  </g>
  <g id="boy-pass">
    <line class="passio-cls-2" x1="102.4" y1="236.4" x2="102.4" y2="254.5"/>
    <line class="passio-cls-2" x1="129.7" y1="237.3" x2="129.7" y2="255.5"/>
    <path class="passio-cls-7" d="M357.8,251.7c-11.2-10.4-32.3-13.5-45.8-2s-12.7,6.5-12.7,27.6c0,10.1,12.9,18.7,15.2,20.6s-.3,1.7,4.3,7.9c7.7,6.6,2.8,8,17.9,8.8s12.6,1.3,22.8-11.9c-2.7,8.9,6.4-7.4,6.4-7.4s6.2-10.4,9-18.5S369,262,357.8,251.7Z" transform="translate(-224.7 -240)"/>
    <path class="passio-cls-8" d="M312,329.6l4.3,151.8s8,3.2,20.4-.8c2.1-.7.1-54.9,2-55,3.7-.3,5.8,51.2,8,52.9,5.3,4.1,17.5.8,17.5.8V336.9c.2-9.5-5.3-17.7-13-19.5l-5-2.8c-2.2,1-18.6,1-20.7,0l-3.9,2.2C316.1,317.4,312,323,312,329.6Z" transform="translate(-224.7 -240)"/>
    <path class="passio-cls-5" d="M363.2,283.8c-2.1-18.6-11.2-22.4-11.2-22.4l-3.2-1-5.9,1s-26.9-2.9-31.4,6.7c-2.8,6-.8,21.5,1.4,34.8,6.9,6.8,12.8,14.5,23.3,14.5s16.3-4.7,23.3-11.9C361.2,300,364,291.6,363.2,283.8Z" transform="translate(-224.7 -240)"/>
    <path class="passio-cls-6" d="M324.7,297.9a8.8,8.8,0,0,0,1.7,2.8,9.7,9.7,0,0,0,2.6,1.9,16.4,16.4,0,0,0,6.2,1.3,11.2,11.2,0,0,0,3.2-.4,14.8,14.8,0,0,0,2.9-1.2,17.4,17.4,0,0,0,2.6-1.9,17.9,17.9,0,0,0,2.3-2.5,12.8,12.8,0,0,1-4.5,5,10.6,10.6,0,0,1-6.5,1.9,12.9,12.9,0,0,1-6.6-1.6,8.8,8.8,0,0,1-2.5-2.2A7.3,7.3,0,0,1,324.7,297.9Z" transform="translate(-224.7 -240)"/>
  </g>
  <path id="heart-pass" class="passio-cls-9" d="M387.6,349.1s-12-6.2-16.4-13.7-1.8-14.2,3.5-16.2c9.7-3.6,13.4,4.8,13.4,4.8s6.4-8.2,13.5-4.8,6.4,10.7,3.1,15.8C399.4,343.4,387.6,349.1,387.6,349.1Z" transform="translate(-224.7 -240)"/>
</svg>
