<svg xmlns="http://www.w3.org/2000/svg" xmlns:xlink="http://www.w3.org/1999/xlink" viewBox="0 0 605 389.7">
  <defs>
    <style>
      .prese-cls-1 {
        fill: none;
        stroke: #ffcbb6;
        stroke-miterlimit: 10;
      }

      .prese-cls-2 {
        fill: #e67399;
      }

      .prese-cls-3 {
        fill: #bc8e4a;
      }

      .prese-cls-4 {
        fill: #ffcbb6;
      }

      .prese-cls-5 {
        fill: #af4925;
      }

      .prese-cls-6 {
        fill: url(#prese-white_gradient);
      }

      .prese-cls-7 {
        fill: url(#prese-white_gradient-2);
      }

      .prese-cls-8 {
        fill: url(#prese-white_gradient-3);
      }

      .prese-cls-9 {
        fill: url(#prese-white_gradient-4);
      }

      .prese-cls-10 {
        fill: #fff;
      }

      .prese-cls-11 {
        fill: #999;
      }

      .prese-cls-12 {
        fill: url(#prese-water);
      }

      .prese-cls-13 {
        fill: url(#prese-madeira);
      }

      .prese-cls-14 {
        fill: url(#prese-madeira-2);
      }

      .prese-cls-15 {
        fill: url(#prese-madeira-3);
      }

      .prese-cls-16 {
        fill: url(#prese-white_gradient-5);
      }

      .prese-cls-17 {
        fill: url(#prese-white_gradient-6);
      }

      .prese-cls-18 {
        fill: url(#prese-white_gradient-7);
      }

      .prese-cls-19 {
        fill: url(#prese-white_gradient-8);
      }

      .prese-cls-20 {
        fill: url(#prese-white_gradient-9);
      }

      .prese-cls-21 {
        fill: url(#prese-white_gradient-10);
      }

      .prese-cls-22 {
        fill: url(#prese-white_gradient-11);
      }

      .prese-cls-23 {
        fill: url(#prese-white_gradient-12);
      }

      .prese-cls-24 {
        fill: url(#prese-white_gradient-13);
      }

      .prese-cls-25 {
        fill: url(#prese-white_gradient-14);
      }

      .prese-cls-26 {
        fill: url(#prese-white_gradient-15);
      }

      .prese-cls-27 {
        fill: url(#prese-white_gradient-16);
      }

      .prese-cls-28 {
        fill: url(#prese-white_gradient-17);
      }

      .prese-cls-29 {
        fill: url(#prese-water-2);
      }

      .prese-cls-30 {
        fill: url(#prese-water-3);
      }

      .prese-cls-31 {
        fill: url(#prese-water-4);
      }

      .prese-cls-32 {
        fill: url(#prese-water-5);
      }

      .prese-cls-33 {
        fill: url(#prese-water-6);
      }

      .prese-cls-34 {
        fill: url(#prese-water-7);
      }

      .prese-cls-35 {
        fill: url(#prese-water-8);
      }

      .prese-cls-36 {
        fill: url(#prese-water-9);
      }

      .prese-cls-37 {
        fill: url(#prese-water-10);
      }

      .prese-cls-38 {
        fill: url(#prese-water-11);
      }

      .prese-cls-39 {
        fill: url(#prese-water-12);
      }

      .prese-cls-40 {
        fill: url(#prese-water-13);
      }

      .prese-cls-41 {
        fill: url(#prese-water-14);
      }

      .prese-cls-42 {
        fill: url(#prese-water-15);
      }

      .prese-cls-43 {
        fill: url(#prese-water-16);
      }

      .prese-cls-44 {
        fill: url(#prese-water-17);
      }

      .prese-cls-45 {
        fill: url(#prese-water-18);
      }

      .prese-cls-46 {
        fill: url(#prese-water-19);
      }

      .prese-cls-47 {
        fill: url(#prese-water-20);
      }

      .prese-cls-48 {
        fill: url(#prese-water-21);
      }

      .prese-cls-49 {
        fill: url(#prese-water-22);
      }

      .prese-cls-50 {
        fill: url(#prese-water-23);
      }

      .prese-cls-51 {
        fill: url(#prese-water-24);
      }

      .prese-cls-52 {
        fill: url(#prese-water-25);
      }

      .prese-cls-53 {
        fill: url(#prese-water-26);
      }

      .prese-cls-54 {
        fill: url(#prese-water-27);
      }

      .prese-cls-55 {
        fill: url(#prese-water-28);
      }

      .prese-cls-56 {
        fill: url(#prese-water-29);
      }

      .prese-cls-57 {
        fill: url(#prese-water-30);
      }

      .prese-cls-58 {
        fill: url(#prese-water-31);
      }

      .prese-cls-59 {
        fill: url(#prese-water-32);
      }

      .prese-cls-60 {
        fill: url(#prese-water-33);
      }

      .prese-cls-61 {
        fill: url(#prese-water-34);
      }

      .prese-cls-62 {
        fill: url(#prese-water-35);
      }

      .prese-cls-63 {
        fill: url(#prese-water-36);
      }

      .prese-cls-64 {
        fill: url(#prese-water-37);
      }

      .prese-cls-65 {
        fill: url(#prese-madeira-4);
      }

      .prese-cls-66 {
        fill: url(#prese-madeira-5);
      }

      .prese-cls-67 {
        fill: url(#prese-water-38);
      }

      .prese-cls-68 {
        fill: url(#prese-water-39);
      }

      .prese-cls-69 {
        fill: url(#prese-water-40);
      }

      .prese-cls-70 {
        fill: url(#prese-water-41);
      }

      .prese-cls-71 {
        fill: url(#prese-water-42);
      }

      .prese-cls-72 {
        fill: url(#prese-water-43);
      }

      .prese-cls-73 {
        fill: url(#prese-water-44);
      }

      .prese-cls-74 {
        fill: url(#prese-water-45);
      }

      .prese-cls-75 {
        fill: url(#prese-water-46);
      }

      .prese-cls-76 {
        fill: url(#prese-water-47);
      }

      .prese-cls-77 {
        fill: url(#prese-water-48);
      }

      .prese-cls-78 {
        fill: url(#prese-water-49);
      }

      .prese-cls-79 {
        fill: url(#prese-white_gradient-18);
      }

      .prese-cls-80 {
        fill: url(#prese-white_gradient-19);
      }

      .prese-cls-81 {
        fill: url(#prese-white_gradient-20);
      }

      .prese-cls-82 {
        fill: url(#prese-white_gradient-21);
      }

      .prese-cls-83 {
        fill: url(#prese-white_gradient-22);
      }
    </style>
    <linearGradient id="prese-white_gradient" data-name="white gradient" x1="7.92" y1="341.66" x2="20.85" y2="341.66" gradientUnits="userSpaceOnUse">
      <stop offset="0" stop-color="#fff"/>
      <stop offset="1" stop-color="#b3b3b3"/>
    </linearGradient>
    <linearGradient id="prese-white_gradient-2" x1="256.92" y1="341.66" x2="269.85" y2="341.66" xlink:href="#prese-white_gradient"/>
    <linearGradient id="prese-white_gradient-3" x1="267.92" y1="237.66" x2="280.85" y2="237.66" xlink:href="#prese-white_gradient"/>
    <linearGradient id="prese-white_gradient-4" x1="0" y1="244.66" x2="281" y2="244.66" xlink:href="#prese-white_gradient"/>
    <linearGradient id="prese-water" x1="97" y1="261.16" x2="111" y2="261.16" gradientUnits="userSpaceOnUse">
      <stop offset="0" stop-color="#b1edc2"/>
      <stop offset="1" stop-color="#004c68"/>
    </linearGradient>
    <linearGradient id="prese-madeira" x1="306.72" y1="401.53" x2="310.75" y2="401.53" gradientTransform="translate(-33.6 28.3) rotate(-5)" gradientUnits="userSpaceOnUse">
      <stop offset="0" stop-color="#cca664"/>
      <stop offset="1" stop-color="#4e0e0c"/>
    </linearGradient>
    <linearGradient id="prese-madeira-2" data-name="prese-madeira" x1="222.04" y1="266.91" x2="247.43" y2="266.91" gradientTransform="matrix(1, 0, 0, 1, 0, 0)" xlink:href="#prese-madeira"/>
    <linearGradient id="prese-madeira-3" data-name="prese-madeira" x1="230.89" y1="252.05" x2="242.12" y2="252.05" gradientTransform="matrix(1, 0, 0, 1, 0, 0)" xlink:href="#prese-madeira"/>
    <linearGradient id="prese-white_gradient-5" x1="221.92" y1="423.54" x2="232.9" y2="423.54" gradientTransform="translate(-216.5 608.2) rotate(-84.4)" xlink:href="#prese-white_gradient"/>
    <linearGradient id="prese-white_gradient-6" x1="215.83" y1="417.25" x2="218.83" y2="417.25" gradientTransform="translate(-219.3 592.5) rotate(-84.4)" xlink:href="#prese-white_gradient"/>
    <linearGradient id="prese-white_gradient-7" x1="216.3" y1="421.93" x2="219.3" y2="421.93" gradientTransform="translate(-223.5 597.2) rotate(-84.4)" xlink:href="#prese-white_gradient"/>
    <linearGradient id="prese-white_gradient-8" x1="216.8" y1="427" x2="219.8" y2="427" gradientTransform="translate(-228.1 602.2) rotate(-84.4)" xlink:href="#prese-white_gradient"/>
    <linearGradient id="prese-white_gradient-9" x1="217.3" y1="432.07" x2="220.3" y2="432.07" gradientTransform="translate(-232.7 607.3) rotate(-84.4)" xlink:href="#prese-white_gradient"/>
    <linearGradient id="prese-white_gradient-10" x1="211.15" y1="417.72" x2="214.15" y2="417.72" gradientTransform="translate(-224 588.2) rotate(-84.4)" xlink:href="#prese-white_gradient"/>
    <linearGradient id="prese-white_gradient-11" x1="211.62" y1="422.4" x2="214.62" y2="422.4" gradientTransform="translate(-228.2 592.9) rotate(-84.4)" xlink:href="#prese-white_gradient"/>
    <linearGradient id="prese-white_gradient-12" x1="212.12" y1="427.47" x2="215.12" y2="427.47" gradientTransform="translate(-232.8 598) rotate(-84.4)" xlink:href="#prese-white_gradient"/>
    <linearGradient id="prese-white_gradient-13" x1="212.62" y1="432.54" x2="215.62" y2="432.54" gradientTransform="translate(-237.4 603.1) rotate(-84.4)" xlink:href="#prese-white_gradient"/>
    <linearGradient id="prese-white_gradient-14" x1="206.47" y1="418.18" x2="209.47" y2="418.18" gradientTransform="translate(-228.6 584) rotate(-84.4)" xlink:href="#prese-white_gradient"/>
    <linearGradient id="prese-white_gradient-15" x1="206.94" y1="422.86" x2="209.94" y2="422.86" gradientTransform="translate(-232.9 588.7) rotate(-84.4)" xlink:href="#prese-white_gradient"/>
    <linearGradient id="prese-white_gradient-16" x1="207.44" y1="427.93" x2="210.44" y2="427.93" gradientTransform="translate(-237.5 593.7) rotate(-84.4)" xlink:href="#prese-white_gradient"/>
    <linearGradient id="prese-white_gradient-17" x1="207.94" y1="433" x2="210.94" y2="433" gradientTransform="translate(-242.1 598.8) rotate(-84.4)" xlink:href="#prese-white_gradient"/>
    <linearGradient id="prese-water-2" data-name="prese-water" x1="181.15" y1="54.91" x2="380.03" y2="54.91" xlink:href="#prese-water"/>
    <linearGradient id="prese-water-3" data-name="prese-water" x1="199.42" y1="102.2" x2="201.55" y2="102.2" xlink:href="#prese-water"/>
    <linearGradient id="prese-water-4" data-name="prese-water" x1="205.06" y1="99.92" x2="207.19" y2="99.92" xlink:href="#prese-water"/>
    <linearGradient id="prese-water-5" data-name="prese-water" x1="211.25" y1="96.91" x2="213.38" y2="96.91" xlink:href="#prese-water"/>
    <linearGradient id="prese-water-6" data-name="prese-water" x1="215.98" y1="94.61" x2="218.11" y2="94.61" xlink:href="#prese-water"/>
    <linearGradient id="prese-water-7" data-name="prese-water" x1="220.53" y1="92.86" x2="222.65" y2="92.86" xlink:href="#prese-water"/>
    <linearGradient id="prese-water-8" data-name="prese-water" x1="226.35" y1="90.03" x2="228.48" y2="90.03" xlink:href="#prese-water"/>
    <linearGradient id="prese-water-9" data-name="prese-water" x1="230.9" y1="88.27" x2="233.03" y2="88.27" xlink:href="#prese-water"/>
    <linearGradient id="prese-water-10" data-name="prese-water" x1="237.45" y1="85.09" x2="239.58" y2="85.09" xlink:href="#prese-water"/>
    <linearGradient id="prese-water-11" data-name="prese-water" x1="242" y1="83.33" x2="244.12" y2="83.33" xlink:href="#prese-water"/>
    <linearGradient id="prese-water-12" data-name="prese-water" x1="249.28" y1="79.79" x2="251.41" y2="79.79" xlink:href="#prese-water"/>
    <linearGradient id="prese-water-13" data-name="prese-water" x1="253.46" y1="78.21" x2="255.59" y2="78.21" xlink:href="#prese-water"/>
    <linearGradient id="prese-water-14" data-name="prese-water" x1="258.19" y1="75.91" x2="260.32" y2="75.91" xlink:href="#prese-water"/>
    <linearGradient id="prese-water-15" data-name="prese-water" x1="263.47" y1="73.8" x2="265.59" y2="73.8" xlink:href="#prese-water"/>
    <linearGradient id="prese-water-16" data-name="prese-water" x1="268.2" y1="71.51" x2="270.33" y2="71.51" xlink:href="#prese-water"/>
    <linearGradient id="prese-water-17" data-name="prese-water" x1="272.57" y1="69.38" x2="274.7" y2="69.38" xlink:href="#prese-water"/>
    <linearGradient id="prese-water-18" data-name="prese-water" x1="277.48" y1="67.45" x2="279.6" y2="67.45" xlink:href="#prese-water"/>
    <linearGradient id="prese-water-19" data-name="prese-water" x1="281.85" y1="65.33" x2="283.97" y2="65.33" xlink:href="#prese-water"/>
    <linearGradient id="prese-water-20" data-name="prese-water" x1="286.39" y1="63.57" x2="288.52" y2="63.57" xlink:href="#prese-water"/>
    <linearGradient id="prese-water-21" data-name="prese-water" x1="291.49" y1="61.1" x2="293.62" y2="61.1" xlink:href="#prese-water"/>
    <linearGradient id="prese-water-22" data-name="prese-water" x1="296.04" y1="59.34" x2="298.16" y2="59.34" xlink:href="#prese-water"/>
    <linearGradient id="prese-water-23" data-name="prese-water" x1="301.67" y1="57.05" x2="303.8" y2="57.05" xlink:href="#prese-water"/>
    <linearGradient id="prese-water-24" data-name="prese-water" x1="306.77" y1="54.57" x2="308.9" y2="54.57" xlink:href="#prese-water"/>
    <linearGradient id="prese-water-25" data-name="prese-water" x1="313.86" y1="51.58" x2="315.99" y2="51.58" xlink:href="#prese-water"/>
    <linearGradient id="prese-water-26" data-name="prese-water" x1="318.23" y1="49.46" x2="320.36" y2="49.46" xlink:href="#prese-water"/>
    <linearGradient id="prese-water-27" data-name="prese-water" x1="324.6" y1="46.82" x2="326.73" y2="46.82" xlink:href="#prese-water"/>
    <linearGradient id="prese-water-28" data-name="prese-water" x1="328.97" y1="44.69" x2="331.09" y2="44.69" xlink:href="#prese-water"/>
    <linearGradient id="prese-water-29" data-name="prese-water" x1="333.15" y1="43.11" x2="335.28" y2="43.11" xlink:href="#prese-water"/>
    <linearGradient id="prese-water-30" data-name="prese-water" x1="341.89" y1="38.87" x2="344.01" y2="38.87" xlink:href="#prese-water"/>
    <linearGradient id="prese-water-31" data-name="prese-water" x1="346.98" y1="36.4" x2="349.11" y2="36.4" xlink:href="#prese-water"/>
    <linearGradient id="prese-water-32" data-name="prese-water" x1="351.17" y1="34.82" x2="353.29" y2="34.82" xlink:href="#prese-water"/>
    <linearGradient id="prese-water-33" data-name="prese-water" x1="369.91" y1="26.16" x2="372.04" y2="26.16" xlink:href="#prese-water"/>
    <linearGradient id="prese-water-34" data-name="prese-water" x1="365.54" y1="28.28" x2="367.67" y2="28.28" xlink:href="#prese-water"/>
    <linearGradient id="prese-water-35" data-name="prese-water" x1="359.72" y1="31.11" x2="361.84" y2="31.11" xlink:href="#prese-water"/>
    <linearGradient id="prese-water-36" data-name="prese-water" x1="355.53" y1="32.69" x2="357.66" y2="32.69" xlink:href="#prese-water"/>
    <linearGradient id="prese-water-37" data-name="prese-water" x1="338.25" y1="40.64" x2="340.37" y2="40.64" xlink:href="#prese-water"/>
    <linearGradient id="prese-madeira-4" data-name="prese-madeira" x1="336.96" y1="186.27" x2="476.85" y2="186.27" gradientTransform="matrix(1, 0, 0, 1, 0, 0)" xlink:href="#prese-madeira"/>
    <linearGradient id="prese-madeira-5" data-name="prese-madeira" x1="388.5" y1="100.68" x2="414.27" y2="100.68" gradientTransform="matrix(1, 0, 0, 1, 0, 0)" xlink:href="#prese-madeira"/>
    <linearGradient id="prese-water-38" data-name="prese-water" x1="388.5" y1="97.5" x2="414.27" y2="97.5" xlink:href="#prese-water"/>
    <linearGradient id="prese-water-39" data-name="prese-water" x1="318.32" y1="273.15" x2="434.88" y2="273.15" xlink:href="#prese-water"/>
    <linearGradient id="prese-water-40" data-name="prese-water" x1="320.81" y1="152.04" x2="325.4" y2="152.04" xlink:href="#prese-water"/>
    <linearGradient id="prese-water-41" data-name="prese-water" x1="323.18" y1="146.99" x2="327.78" y2="146.99" xlink:href="#prese-water"/>
    <linearGradient id="prese-water-42" data-name="prese-water" x1="325.56" y1="141.94" x2="330.15" y2="141.94" xlink:href="#prese-water"/>
    <linearGradient id="prese-water-43" data-name="prese-water" x1="328.36" y1="135.97" x2="332.96" y2="135.97" xlink:href="#prese-water"/>
    <linearGradient id="prese-water-44" data-name="prese-water" x1="330.52" y1="131.37" x2="335.11" y2="131.37" xlink:href="#prese-water"/>
    <linearGradient id="prese-water-45" data-name="prese-water" x1="332.68" y1="126.78" x2="337.27" y2="126.78" xlink:href="#prese-water"/>
    <linearGradient id="prese-water-46" data-name="prese-water" x1="335.7" y1="120.35" x2="340.29" y2="120.35" xlink:href="#prese-water"/>
    <linearGradient id="prese-water-47" data-name="prese-water" x1="338.29" y1="114.84" x2="342.88" y2="114.84" xlink:href="#prese-water"/>
    <linearGradient id="prese-water-48" data-name="prese-water" x1="340.88" y1="109.33" x2="345.47" y2="109.33" xlink:href="#prese-water"/>
    <linearGradient id="prese-water-49" data-name="prese-water" x1="343.47" y1="103.82" x2="348.06" y2="103.82" xlink:href="#prese-water"/>
    <linearGradient id="prese-white_gradient-18" x1="318" y1="318.75" x2="425.35" y2="318.75" xlink:href="#prese-white_gradient"/>
    <linearGradient id="prese-white_gradient-19" x1="425.3" y1="305.27" x2="539.31" y2="305.27" xlink:href="#prese-white_gradient"/>
    <linearGradient id="prese-white_gradient-20" x1="536.88" y1="305.27" x2="605" y2="305.27" xlink:href="#prese-white_gradient"/>
    <linearGradient id="prese-white_gradient-21" x1="396.1" y1="334.04" x2="460.52" y2="334.04" xlink:href="#prese-white_gradient"/>
    <linearGradient id="prese-white_gradient-22" x1="460.52" y1="334.04" x2="484.93" y2="334.04" xlink:href="#prese-white_gradient"/>
  </defs>
  <title>prese-svg</title>
  <g id="girl-pres">
    <g>
      <line class="prese-cls-1" x1="54.7" y1="333.4" x2="54.7" y2="349.6"/>
      <line class="prese-cls-1" x1="83.1" y1="333.3" x2="83.1" y2="349.6"/>
      <path class="prese-cls-2" d="M128.8,318.4,94.1,469.7s11.4,20.4,43.4,22.6,44.7-18,44.7-18L144.4,318.4l-4.9,2.8a5.5,5.5,0,0,1-5.8,0Z" transform="translate(-71.7 -157)"/>
      <path class="prese-cls-3" d="M162.9,261.7c-9.9-9.3-36.3-10.9-48.1-.7S99,288.7,99.6,312.4s34.8,14.1,23.4,14.9c-4.3.3-6.7-5-7.9-12.2-3-3,9.2,10.3,22.5,10.6s26.6-12.3,25.6-11.2a41.6,41.6,0,0,1-6.2,12.8s11.5-4,18.1-8S172.8,270.9,162.9,261.7Z" transform="translate(-71.7 -157)"/>
      <path class="prese-cls-4" d="M164.9,296.6c-1.8-16.7-12.2-21.8-12.2-21.8l-1.3-8.9-6.6,8.9s-23.8-2.6-27.7,6c-2.5,5.3-4,22.4-2,34.3a33.7,33.7,0,0,0,48.1-.6A45.5,45.5,0,0,0,164.9,296.6Z" transform="translate(-71.7 -157)"/>
      <path class="prese-cls-5" d="M128.7,307.5a11,11,0,0,0,4.1,4.2,12.1,12.1,0,0,0,5.5,1.6,13.7,13.7,0,0,0,2.9-.2,8.5,8.5,0,0,0,2.6-1.1,11.9,11.9,0,0,0,3.8-4.5,9.1,9.1,0,0,1-3.3,5.1,9.7,9.7,0,0,1-2.9,1.4,10.9,10.9,0,0,1-3.1.3,12.1,12.1,0,0,1-5.9-1.9A9,9,0,0,1,128.7,307.5Z" transform="translate(-71.7 -157)"/>
    </g>
    <path class="prese-cls-2" d="M245.7,414.7" transform="translate(-71.7 -157)"/>
  </g>
  <g id="table-group-pres">
    <g id="trable-pres">
      <polygon class="prese-cls-6" points="8.1 293.7 7.9 389.7 20.8 389.7 20.8 293.7 8.1 293.7"/>
      <polygon class="prese-cls-7" points="257.1 293.7 256.9 389.7 269.8 389.7 269.8 293.7 257.1 293.7"/>
      <polygon class="prese-cls-8" points="268.1 189.7 267.9 285.7 280.8 285.7 280.8 189.7 268.1 189.7"/>
      <polygon class="prese-cls-9" points="0 299.7 138 198.7 281 189.7 271 299.7 0 299.7"/>
    </g>
    <polygon id="paper-pres" class="prese-cls-10" points="138 231.7 99 264.3 201 270.7 193 231.7 138 231.7"/>
    <polygon id="paper-pres-2" data-name="paper-pres" class="prese-cls-10" points="221 241.7 238 241.7 259 258.7 198 267.7 202 241.7 221 241.7"/>
    <g id="computer-pres">
      <polygon class="prese-cls-11" points="148 212.7 167 237.7 220 218.7 222 170.7 187 158.7 186 200.7 148 212.7"/>
      <polygon points="190 164.7 189 200.7 216 214.7 217 173.7 190 164.7"/>
    </g>
    <polygon id="s-ruler-pres" class="prese-cls-12" points="97 237.7 99 285.7 111 285.7 104 236.7 97 237.7"/>
    <g id="compass-pres">
      <rect class="prese-cls-13" x="307.1" y="397.2" width="3.3" height="8.76" transform="translate(-35.7 -182.3) rotate(5)"/>
      <polygon class="prese-cls-14" points="232.7 253.2 223 276 222 280.9 225.7 277.1 236.5 253.6 244 277.6 247.3 281.4 247.4 276.5 238.8 252.4 232.7 253.2"/>
      <circle class="prese-cls-15" cx="236.5" cy="252" r="5.6"/>
    </g>
    <g id="calculator-pres">
      <rect class="prese-cls-11" x="206.7" y="407.7" width="25.9" height="33.31" transform="translate(548.5 7) rotate(84.4)"/>
      <rect class="prese-cls-16" x="217.2" y="419" width="20.4" height="9.01" transform="translate(554.8 -1.4) rotate(84.4)"/>
      <rect class="prese-cls-17" x="216" y="415.9" width="2.7" height="2.74" transform="translate(539.5 2.9) rotate(84.4)"/>
      <rect class="prese-cls-18" x="216.4" y="420.6" width="2.7" height="2.74" transform="translate(544.5 6.7) rotate(84.4)"/>
      <rect class="prese-cls-19" x="216.9" y="425.6" width="2.7" height="2.74" transform="translate(550 10.7) rotate(84.4)"/>
      <rect class="prese-cls-20" x="217.4" y="430.7" width="2.7" height="2.74" transform="translate(555.5 14.8) rotate(84.4)"/>
      <rect class="prese-cls-21" x="211.3" y="416.3" width="2.7" height="2.74" transform="translate(535.7 8) rotate(84.4)"/>
      <rect class="prese-cls-22" x="211.7" y="421" width="2.7" height="2.74" transform="translate(540.8 11.7) rotate(84.4)"/>
      <rect class="prese-cls-23" x="212.2" y="426.1" width="2.7" height="2.74" transform="translate(546.3 15.8) rotate(84.4)"/>
      <rect class="prese-cls-24" x="212.7" y="431.2" width="2.7" height="2.74" transform="translate(551.8 19.9) rotate(84.4)"/>
      <rect class="prese-cls-25" x="206.6" y="416.8" width="2.7" height="2.74" transform="translate(531.9 13.1) rotate(84.4)"/>
      <rect class="prese-cls-26" x="207.1" y="421.5" width="2.7" height="2.74" transform="translate(537 16.8) rotate(84.4)"/>
      <rect class="prese-cls-27" x="207.6" y="426.6" width="2.7" height="2.74" transform="translate(542.5 20.9) rotate(84.4)"/>
      <rect class="prese-cls-28" x="208.1" y="431.6" width="2.7" height="2.74" transform="translate(548 25) rotate(84.4)"/>
    </g>
  </g>
  <g id="ruler-pres">
    <g>
      <polygon class="prese-cls-29" points="369.4 1.5 181.2 83.5 193.2 108.3 380 25.2 369.4 1.5"/>
      <line class="prese-cls-30" x1="199.4" y1="99.8" x2="201.5" y2="104.6"/>
      <line class="prese-cls-31" x1="205.1" y1="97.6" x2="207.2" y2="102.3"/>
      <line class="prese-cls-32" x1="211.3" y1="94.6" x2="213.4" y2="99.3"/>
      <line class="prese-cls-33" x1="216" y1="92.3" x2="218.1" y2="97"/>
      <line class="prese-cls-34" x1="220.5" y1="90.5" x2="222.7" y2="95.2"/>
      <line class="prese-cls-35" x1="226.4" y1="87.7" x2="228.5" y2="92.4"/>
      <line class="prese-cls-36" x1="230.9" y1="85.9" x2="233" y2="90.6"/>
      <line class="prese-cls-37" x1="237.5" y1="82.7" x2="239.6" y2="87.4"/>
      <line class="prese-cls-38" x1="242" y1="81" x2="244.1" y2="85.7"/>
      <line class="prese-cls-39" x1="249.3" y1="77.4" x2="251.4" y2="82.1"/>
      <line class="prese-cls-40" x1="253.5" y1="75.9" x2="255.6" y2="80.6"/>
      <line class="prese-cls-41" x1="258.2" y1="73.6" x2="260.3" y2="78.3"/>
      <line class="prese-cls-42" x1="263.5" y1="71.4" x2="265.6" y2="76.2"/>
      <line class="prese-cls-43" x1="268.2" y1="69.2" x2="270.3" y2="73.9"/>
      <line class="prese-cls-44" x1="272.6" y1="67" x2="274.7" y2="71.7"/>
      <line class="prese-cls-45" x1="277.5" y1="65.1" x2="279.6" y2="69.8"/>
      <line class="prese-cls-46" x1="281.8" y1="63" x2="284" y2="67.7"/>
      <line class="prese-cls-47" x1="286.4" y1="61.2" x2="288.5" y2="65.9"/>
      <line class="prese-cls-48" x1="291.5" y1="58.7" x2="293.6" y2="63.4"/>
      <line class="prese-cls-49" x1="296" y1="57" x2="298.2" y2="61.7"/>
      <line class="prese-cls-50" x1="301.7" y1="54.7" x2="303.8" y2="59.4"/>
      <line class="prese-cls-51" x1="306.8" y1="52.2" x2="308.9" y2="56.9"/>
      <line class="prese-cls-52" x1="313.9" y1="49.2" x2="316" y2="53.9"/>
      <line class="prese-cls-53" x1="318.2" y1="47.1" x2="320.4" y2="51.8"/>
      <line class="prese-cls-54" x1="324.6" y1="44.5" x2="326.7" y2="49.2"/>
      <line class="prese-cls-55" x1="329" y1="42.3" x2="331.1" y2="47"/>
      <line class="prese-cls-56" x1="333.1" y1="40.8" x2="335.3" y2="45.5"/>
      <line class="prese-cls-57" x1="341.9" y1="36.5" x2="344" y2="41.2"/>
      <line class="prese-cls-58" x1="347" y1="34" x2="349.1" y2="38.8"/>
      <line class="prese-cls-59" x1="351.2" y1="32.5" x2="353.3" y2="37.2"/>
      <line class="prese-cls-60" x1="369.9" y1="23.8" x2="372" y2="28.5"/>
      <line class="prese-cls-61" x1="365.5" y1="25.9" x2="367.7" y2="30.6"/>
      <line class="prese-cls-62" x1="359.7" y1="28.8" x2="361.8" y2="33.5"/>
      <line class="prese-cls-63" x1="355.5" y1="30.3" x2="357.7" y2="35"/>
      <line class="prese-cls-64" x1="338.2" y1="38.3" x2="340.4" y2="43"/>
    </g>
  </g>
  <g id="ruler-t-pres">
    <g>
      <polygon class="prese-cls-65" points="337 171.5 476.9 171.5 476.9 184.4 414.3 201 388.5 201 337 186.3 337 171.5"/>
      <rect class="prese-cls-66" x="388.5" y="0.4" width="25.8" height="200.64"/>
      <rect class="prese-cls-67" x="388.5" width="25.8" height="195"/>
      <line class="prese-cls-10" x1="403.2" y1="160.5" x2="414.3" y2="160.5"/>
      <line class="prese-cls-10" x1="403.2" y1="149.5" x2="414.3" y2="149.5"/>
      <line class="prese-cls-10" x1="403.2" y1="140.3" x2="414.3" y2="140.3"/>
      <line class="prese-cls-10" x1="403.2" y1="129.2" x2="414.3" y2="129.2"/>
      <line class="prese-cls-10" x1="403.2" y1="120" x2="414.3" y2="120"/>
      <line class="prese-cls-10" x1="403.2" y1="109" x2="414.3" y2="109"/>
      <line class="prese-cls-10" x1="403.2" y1="97.9" x2="414.3" y2="97.9"/>
      <line class="prese-cls-10" x1="403.2" y1="86.9" x2="414.3" y2="86.9"/>
      <line class="prese-cls-10" x1="403.2" y1="75.8" x2="414.3" y2="75.8"/>
      <line class="prese-cls-10" x1="403.2" y1="66.6" x2="414.3" y2="66.6"/>
      <line class="prese-cls-10" x1="403.2" y1="53.7" x2="414.3" y2="53.7"/>
      <line class="prese-cls-10" x1="403.2" y1="44.5" x2="414.3" y2="44.5"/>
      <line class="prese-cls-10" x1="403.2" y1="33.5" x2="414.3" y2="33.5"/>
    </g>
  </g>
  <g id="square-ruler-pres">
    <g>
      <path class="prese-cls-68" d="M318.3,280.9l75.8,35.7,40.8-86.9Zm67.4,17.7-35.8-16.8L405,257.6Z" transform="translate(-71.7 -157)"/>
      <line class="prese-cls-69" x1="325.4" y1="153.1" x2="320.8" y2="151"/>
      <line class="prese-cls-70" x1="327.8" y1="148.1" x2="323.2" y2="145.9"/>
      <line class="prese-cls-71" x1="330.2" y1="143" x2="325.6" y2="140.9"/>
      <line class="prese-cls-72" x1="333" y1="137" x2="328.4" y2="134.9"/>
      <line class="prese-cls-73" x1="335.1" y1="132.5" x2="330.5" y2="130.3"/>
      <line class="prese-cls-74" x1="337.3" y1="127.9" x2="332.7" y2="125.7"/>
      <line class="prese-cls-75" x1="340.3" y1="121.4" x2="335.7" y2="119.3"/>
      <line class="prese-cls-76" x1="342.9" y1="115.9" x2="338.3" y2="113.8"/>
      <line class="prese-cls-77" x1="345.5" y1="110.4" x2="340.9" y2="108.3"/>
      <line class="prese-cls-78" x1="348.1" y1="104.9" x2="343.5" y2="102.7"/>
    </g>
  </g>
  <g id="model-pres">
    <g>
      <polygon class="prese-cls-79" points="425.3 274.5 425.3 305.1 425.4 329.9 321.4 376.7 318 260.8 425.3 274.5"/>
      <polygon class="prese-cls-80" points="425.3 274.5 539.3 258 536.9 352.5 425.4 329.9 425.3 274.5"/>
      <polyline class="prese-cls-81" points="536.9 352.5 605 334 605 279.4 539.3 258 536.9 352.5"/>
      <polygon class="prese-cls-82" points="396.3 343 460.5 361.4 460.5 306.7 396.1 312.6 396.3 343"/>
      <polyline class="prese-cls-83" points="460.5 306.7 484.9 308.7 484.9 342 460.5 361.4"/>
    </g>
  </g>
</svg>
