<svg id="Layer_1" data-name="Layer 1" xmlns="http://www.w3.org/2000/svg" xmlns:xlink="http://www.w3.org/1999/xlink" width="426" height="316.3" viewBox="0 0 426 316.3">
  <defs>
    <style>
      .cls-1 {
        fill: url(#white_gradient);
      }

      .cls-2 {
        fill: url(#white_gradient-2);
      }

      .cls-3 {
        fill: url(#white_gradient-3);
      }

      .cls-4 {
        fill: url(#erva);
      }

      .cls-16, .cls-5 {
        fill: none;
        stroke-miterlimit: 10;
      }

      .cls-5 {
        stroke: #ffcbb6;
      }

      .cls-6 {
        fill: #e67399;
      }

      .cls-7 {
        fill: #bc8e4a;
      }

      .cls-8 {
        fill: #ffcbb6;
      }

      .cls-9 {
        fill: #af4925;
      }

      .cls-10 {
        fill: url(#white_gradient-4);
      }

      .cls-11 {
        fill: url(#white_gradient-5);
      }

      .cls-12 {
        fill: url(#white_gradient-6);
      }

      .cls-13 {
        fill: url(#white_gradient-7);
      }

      .cls-14 {
        fill: url(#white_gradient-8);
      }

      .cls-15 {
        fill: #fff;
      }

      .cls-16 {
        stroke: #666;
      }

      .cls-17 {
        fill: url(#agua);
      }

      .cls-18 {
        fill: url(#madeira);
      }
    </style>
    <linearGradient id="white_gradient" data-name="white gradient" x1="175.66" y1="381.56" x2="202.26" y2="381.56" gradientUnits="userSpaceOnUse">
      <stop offset="0" stop-color="#fff"/>
      <stop offset="1" stop-color="#b3b3b3"/>
    </linearGradient>
    <linearGradient id="white_gradient-2" x1="124" y1="390.92" x2="156.16" y2="390.92" xlink:href="#white_gradient"/>
    <linearGradient id="white_gradient-3" x1="144.65" y1="381.04" x2="175.66" y2="381.04" xlink:href="#white_gradient"/>
    <linearGradient id="erva" x1="132" y1="473.61" x2="204" y2="473.61" gradientUnits="userSpaceOnUse">
      <stop offset="0" stop-color="#dce477"/>
      <stop offset="1" stop-color="#4e6e0c"/>
    </linearGradient>
    <linearGradient id="white_gradient-4" x1="61" y1="266.63" x2="77" y2="266.63" xlink:href="#white_gradient"/>
    <linearGradient id="white_gradient-5" x1="410.67" y1="266.63" x2="426" y2="266.63" xlink:href="#white_gradient"/>
    <linearGradient id="white_gradient-6" x1="353.27" y1="179.69" x2="368.61" y2="179.69" xlink:href="#white_gradient"/>
    <linearGradient id="white_gradient-7" x1="117.83" y1="179.69" x2="133.17" y2="179.69" xlink:href="#white_gradient"/>
    <linearGradient id="white_gradient-8" x1="59" y1="173.47" x2="425.14" y2="173.47" xlink:href="#white_gradient"/>
    <linearGradient id="agua" x1="128.67" y1="150" x2="382" y2="150" gradientUnits="userSpaceOnUse">
      <stop offset="0" stop-color="#b1edc2"/>
      <stop offset="1" stop-color="#004c68"/>
    </linearGradient>
    <linearGradient id="madeira" x1="371.5" y1="154.12" x2="410.67" y2="154.12" gradientUnits="userSpaceOnUse">
      <stop offset="0" stop-color="#cca664"/>
      <stop offset="1" stop-color="#4e0e0c"/>
    </linearGradient>
  </defs>
  <title>realistic-content</title>
  <g id="bin-rea">
    <path class="cls-1" d="M201,287.7,193,489s-.3,6.5-10,5.6-7-224.9-7-224.9,12.9-5.5,21.3,7.1S201,287.7,201,287.7Z" transform="translate(-124 -242)"/>
    <path class="cls-2" d="M124,287.7l25.3,210.6s0,8,5.4,3.4-5.4-222.4-5.4-222.4-9.3-1.8-17.3.9S124,287.7,124,287.7Z" transform="translate(-124 -242)"/>
    <path class="cls-3" d="M168,503.1l7.7-249.2s-7.7-7.1-15.6-7.4S142,256.3,145.3,261s5.4,254,5.4,254,.1,1.3,9.4,0S168,503.1,168,503.1Z" transform="translate(-124 -242)"/>
    <path class="cls-4" d="M132,425.7s13.3,22.8,40,16.6S201,411,201,411l3,102.7s-20.7,26.6-41.3,22S138,525,138,525Z" transform="translate(-124 -242)"/>
  </g>
  <g id="girl-rea">
    <line class="cls-5" x1="228.8" y1="236.4" x2="228.8" y2="252.6"/>
    <line class="cls-5" x1="257.2" y1="236.3" x2="257.2" y2="252.6"/>
    <path class="cls-6" d="M355.1,306.4,320.5,457.7s11.3,20.4,43.4,22.6,44.7-18,44.7-18L370.8,306.4l-4.9,2.8a5.7,5.7,0,0,1-5.9,0Z" transform="translate(-124 -242)"/>
    <path class="cls-7" d="M389.3,249.7c-9.9-9.3-36.3-10.9-48.2-.7s-15.8,27.7-15.1,51.4,34.8,14.1,23.4,14.9c-4.3.3-6.8-5-8-12.2-3-3,9.2,10.3,22.5,10.6s26.7-12.3,25.6-11.2a41.6,41.6,0,0,1-6.2,12.8s11.6-4,18.2-8S399.1,258.9,389.3,249.7Z" transform="translate(-124 -242)"/>
    <path class="cls-8" d="M391.2,284.6c-1.8-16.7-12.1-21.8-12.1-21.8l-1.4-8.9-6.6,8.9s-23.7-2.6-27.7,6c-2.4,5.3-3.9,22.4-2,34.3a33.7,33.7,0,0,0,48.1-.6A43.7,43.7,0,0,0,391.2,284.6Z" transform="translate(-124 -242)"/>
    <path class="cls-9" d="M355.1,295.5a10.8,10.8,0,0,0,4,4.2,12.5,12.5,0,0,0,5.6,1.6,14.2,14.2,0,0,0,2.9-.2,8.5,8.5,0,0,0,2.6-1.1,11.9,11.9,0,0,0,3.8-4.5,9.9,9.9,0,0,1-3.4,5.1,9.2,9.2,0,0,1-2.8,1.4,11.6,11.6,0,0,1-3.2.3,12.8,12.8,0,0,1-5.9-1.9A9.3,9.3,0,0,1,355.1,295.5Z" transform="translate(-124 -242)"/>
  </g>
  <g id="table-rea">
    <rect class="cls-10" x="61" y="216.9" width="16" height="99.39"/>
    <rect class="cls-11" x="410.7" y="216.9" width="15.3" height="99.39"/>
    <rect class="cls-12" x="353.3" y="130" width="15.3" height="99.39"/>
    <rect class="cls-13" x="117.8" y="130" width="15.3" height="99.39"/>
    <polygon class="cls-14" points="425.1 216.9 59 216.9 118.5 130.4 366.1 130 425.1 216.9"/>
  </g>
  <g id="plan-rea">
    <polygon class="cls-15" points="150 142.5 121 195.5 360.9 195.5 335 142.5 150 142.5"/>
    <polygon class="cls-16" points="165.5 151.4 154.5 176.5 279.7 176.5 277.5 164 233.5 164 234.5 151.4 165.5 151.4"/>
    <polyline class="cls-16" points="186.5 151.4 182.5 161.5 161.8 161.5"/>
    <line class="cls-16" x1="233.5" y1="164" x2="232" y2="176.5"/>
  </g>
  <g id="ruler-rea">
    <polygon class="cls-17" points="377.5 146.8 135 146.8 128.7 153.2 382 153.2 377.5 146.8"/>
    <polygon class="cls-18" points="371.5 138 393.4 170.2 410.7 169 384 138 371.5 138"/>
  </g>
</svg>
