<svg xmlns="http://www.w3.org/2000/svg" xmlns:xlink="http://www.w3.org/1999/xlink" width="501.2" height="481.3" viewBox="0 0 501.2 481.3">
  <defs>
    <style>
      .vision-cls-1, .vision-cls-12 {
        fill: none;
        stroke-miterlimit: 10;
      }

      .vision-cls-1 {
        stroke: #ffcbb6;
      }

      .vision-cls-2 {
        fill: #e67399;
      }

      .vision-cls-3 {
        fill: #bc8e4a;
      }

      .vision-cls-4 {
        fill: #ffcbb6;
      }

      .vision-cls-5 {
        fill: #af4925;
      }

      .vision-cls-6 {
        fill: url(#vision-white_gradient);
      }

      .vision-cls-7 {
        fill: url(#vision-white_gradient-2);
      }

      .vision-cls-8 {
        fill: url(#vision-white_gradient-3);
      }

      .vision-cls-9 {
        fill: url(#vision-white_gradient-4);
      }

      .vision-cls-10 {
        fill: #fff;
      }

      .vision-cls-11 {
        fill: url(#vision-linear-gradient);
      }

      .vision-cls-12 {
        stroke: #fff;
        stroke-width: 0.5px;
      }

      .vision-cls-13 {
        fill: #666;
      }

      .vision-cls-14 {
        fill: #4d4d4d;
      }

      .vision-cls-15 {
        fill: gray;
      }

      .vision-cls-16 {
        fill: url(#vision-linear-gradient-2);
      }

      .vision-cls-17 {
        fill: url(#vision-white_gradient-5);
      }

      .vision-cls-18 {
        fill: #9e005d;
      }

      .vision-cls-19 {
        fill: #662d91;
      }

      .vision-cls-20 {
        fill: #00a99d;
      }

      .vision-cls-21 {
        fill: url(#vision-linear-gradient-3);
      }

      .vision-cls-22 {
        fill: url(#vision-linear-gradient-4);
      }

      .vision-cls-23 {
        fill: url(#vision-linear-gradient-5);
      }

      .vision-cls-24 {
        fill: url(#vision-linear-gradient-6);
      }

      .vision-cls-25 {
        fill: #c69c6d;
      }

      .vision-cls-26 {
        fill: #0071bc;
      }

      .vision-cls-27 {
        fill: #fbb03b;
      }

      .vision-cls-28 {
        fill: url(#vision-white_gradient-6);
      }

      .vision-cls-29 {
        fill: url(#vision-white_gradient-7);
      }

      .vision-cls-30 {
        fill: url(#vision-white_gradient-8);
      }

      .vision-cls-31 {
        fill: url(#vision-grass);
      }

      .vision-cls-32 {
        fill: url(#vision-wood);
      }

      .vision-cls-33 {
        fill: url(#vision-linear-gradient-7);
      }

      .vision-cls-34 {
        fill: url(#vision-linear-gradient-8);
      }

      .vision-cls-35 {
        fill: url(#vision-linear-gradient-9);
      }

      .vision-cls-36 {
        fill: #8c6239;
      }

      .vision-cls-37 {
        fill: #5da59e;
      }
    </style>
    <linearGradient id="vision-white_gradient" data-name="white gradient" x1="7.92" y1="433.29" x2="20.85" y2="433.29" gradientUnits="userSpaceOnUse">
      <stop offset="0" stop-color="#fff"/>
      <stop offset="1" stop-color="#b3b3b3"/>
    </linearGradient>
    <linearGradient id="vision-white_gradient-2" x1="256.92" y1="433.29" x2="269.85" y2="433.29" xlink:href="#vision-white_gradient"/>
    <linearGradient id="vision-white_gradient-3" x1="267.92" y1="329.29" x2="280.85" y2="329.29" xlink:href="#vision-white_gradient"/>
    <linearGradient id="vision-white_gradient-4" x1="0" y1="336.29" x2="281" y2="336.29" xlink:href="#vision-white_gradient"/>
    <linearGradient id="vision-linear-gradient" x1="140.5" y1="286.29" x2="214.5" y2="286.29" gradientUnits="userSpaceOnUse">
      <stop offset="0" stop-color="#b3b3b3"/>
      <stop offset="1" stop-color="#4d4d4d"/>
    </linearGradient>
    <linearGradient id="vision-linear-gradient-2" x1="146.26" y1="431.14" x2="166.01" y2="431.14" gradientTransform="matrix(-0.38, 0.93, -0.93, -0.38, 615.36, 447.55)" gradientUnits="userSpaceOnUse">
      <stop offset="0" stop-color="#ccc"/>
      <stop offset="1" stop-color="#999"/>
    </linearGradient>
    <linearGradient id="vision-white_gradient-5" x1="153.62" y1="444.69" x2="155.4" y2="444.69" gradientTransform="matrix(-0.38, 0.93, -0.93, -0.38, 550.89, 378.19)" xlink:href="#vision-white_gradient"/>
    <linearGradient id="vision-linear-gradient-3" x1="152.52" y1="242.85" x2="172.03" y2="242.85" gradientTransform="translate(70.6 178.8) rotate(-3.3)" xlink:href="#vision-linear-gradient"/>
    <linearGradient id="vision-linear-gradient-4" x1="162.27" y1="237.87" x2="167.39" y2="237.87" gradientTransform="matrix(0.97, -0.22, 0.22, 0.97, -29.82, 142.85)" xlink:href="#vision-linear-gradient"/>
    <linearGradient id="vision-linear-gradient-5" x1="166.48" y1="235.05" x2="169.44" y2="235.05" gradientTransform="matrix(0.97, -0.22, 0.22, 0.97, -29.82, 142.85)" xlink:href="#vision-linear-gradient"/>
    <linearGradient id="vision-linear-gradient-6" x1="159.49" y1="240.75" x2="162.85" y2="240.75" gradientTransform="matrix(0.97, -0.22, 0.22, 0.97, -29.82, 142.85)" xlink:href="#vision-linear-gradient"/>
    <linearGradient id="vision-white_gradient-6" x1="125.4" y1="200.08" x2="142.07" y2="200.08" xlink:href="#vision-white_gradient"/>
    <linearGradient id="vision-white_gradient-7" x1="157.46" y1="183.26" x2="182.68" y2="183.26" xlink:href="#vision-white_gradient"/>
    <linearGradient id="vision-white_gradient-8" x1="186.74" y1="116.95" x2="501.24" y2="116.95" xlink:href="#vision-white_gradient"/>
    <linearGradient id="vision-grass" x1="241.24" y1="163.64" x2="453.24" y2="163.64" gradientUnits="userSpaceOnUse">
      <stop offset="0" stop-color="#dce477"/>
      <stop offset="1" stop-color="#4e6e0c"/>
    </linearGradient>
    <linearGradient id="vision-wood" x1="456.13" y1="193.4" x2="472.16" y2="193.4" gradientUnits="userSpaceOnUse">
      <stop offset="0" stop-color="#cca664"/>
      <stop offset="1" stop-color="#4e0e0c"/>
    </linearGradient>
    <linearGradient id="vision-linear-gradient-7" x1="357.91" y1="77.54" x2="419.35" y2="77.54" xlink:href="#vision-grass"/>
    <linearGradient id="vision-linear-gradient-8" x1="388.63" y1="90.74" x2="443.57" y2="90.74" xlink:href="#vision-grass"/>
    <linearGradient id="vision-linear-gradient-9" x1="388.63" y1="60.88" x2="435.79" y2="60.88" xlink:href="#vision-grass"/>
  </defs>
  <title>vision-svg</title>
  <g id="girl-vis">
    <g>
      <line class="vision-cls-1" x1="65" y1="416.2" x2="65" y2="432.4"/>
      <line class="vision-cls-1" x1="93.3" y1="416.1" x2="93.3" y2="432.4"/>
      <path class="vision-cls-2" d="M131.8,313.5,97.1,464.9s11.4,20.3,43.4,22.6,44.7-18.1,44.7-18.1L147.4,313.5l-4.9,2.8a5.5,5.5,0,0,1-5.8,0Z" transform="translate(-64.5 -69.4)"/>
      <path class="vision-cls-3" d="M165.9,256.8c-9.9-9.2-36.3-10.9-48.1-.6s-15.8,27.6-15.2,51.4,34.8,14.1,23.4,14.9c-4.3.2-6.7-5.1-7.9-12.2-3-3.1,9.2,10.2,22.5,10.6s26.6-12.3,25.6-11.2a43.2,43.2,0,0,1-6.2,12.8s11.5-4.1,18.1-8S175.8,266,165.9,256.8Z" transform="translate(-64.5 -69.4)"/>
      <path class="vision-cls-4" d="M167.9,291.7c-1.8-16.7-12.2-21.8-12.2-21.8l-1.3-8.8-6.6,8.8s-23.8-2.5-27.7,6c-2.5,5.4-4,22.5-2,34.4a33.7,33.7,0,0,0,48.1-.6A45.8,45.8,0,0,0,167.9,291.7Z" transform="translate(-64.5 -69.4)"/>
      <path class="vision-cls-5" d="M131.7,302.7a7.8,7.8,0,0,0,3.8,4,12.9,12.9,0,0,0,5.5,1.1,13.3,13.3,0,0,0,2.8-.3,9.7,9.7,0,0,0,2.6-1.1,14.7,14.7,0,0,0,4.2-3.7,11.5,11.5,0,0,1-3.8,4.4,10.9,10.9,0,0,1-5.8,1.7,11.8,11.8,0,0,1-5.8-1.4A7.1,7.1,0,0,1,131.7,302.7Z" transform="translate(-64.5 -69.4)"/>
    </g>
  </g>
  <g id="table-vis">
    <g id="table">
      <polygon class="vision-cls-6" points="8.1 385.3 7.9 481.3 20.8 481.3 20.8 385.3 8.1 385.3"/>
      <polygon class="vision-cls-7" points="257.1 385.3 256.9 481.3 269.8 481.3 269.8 385.3 257.1 385.3"/>
      <polygon class="vision-cls-8" points="268.1 281.3 267.9 377.3 280.8 377.3 280.8 281.3 268.1 281.3"/>
      <polygon class="vision-cls-9" points="0 391.3 138 290.3 281 281.3 271 391.3 0 391.3"/>
    </g>
    <polygon class="vision-cls-10" points="117.9 319 93.3 339.5 157.5 343.5 152.4 319 117.9 319"/>
    <g id="computer">
      <polygon class="vision-cls-11" points="140.5 300.8 159.5 325.8 212.5 306.8 214.5 258.8 179.5 246.8 178.5 288.8 140.5 300.8"/>
      <polygon points="182.5 252.8 181.5 288.8 208.5 302.8 209.5 261.8 182.5 252.8"/>
      <line class="vision-cls-12" x1="183.7" y1="255.9" x2="205.7" y2="264.2"/>
      <line class="vision-cls-12" x1="183.7" y1="258.4" x2="197.5" y2="263.3"/>
      <line class="vision-cls-12" x1="183.7" y1="260.9" x2="206.9" y2="270.3"/>
      <line class="vision-cls-12" x1="183.7" y1="263.3" x2="192.5" y2="266.8"/>
      <line class="vision-cls-12" x1="183.7" y1="265.6" x2="190.6" y2="268.6"/>
      <line class="vision-cls-12" x1="183.7" y1="267.7" x2="206.9" y2="277.8"/>
      <line class="vision-cls-12" x1="183.7" y1="271.1" x2="201.1" y2="278.6"/>
      <line class="vision-cls-12" x1="183.7" y1="273.9" x2="196.7" y2="279.4"/>
      <line class="vision-cls-12" x1="183.7" y1="275.8" x2="206.9" y2="286.3"/>
      <line class="vision-cls-12" x1="183.7" y1="277.8" x2="191.4" y2="281.3"/>
      <line class="vision-cls-12" x1="183.7" y1="279.5" x2="205.7" y2="289.9"/>
      <path class="vision-cls-10" d="M248.2,352.5" transform="translate(-64.5 -69.4)"/>
      <line class="vision-cls-12" x1="183.7" y1="281.3" x2="192.5" y2="285.4"/>
      <line class="vision-cls-12" x1="183.7" y1="283.2" x2="191.4" y2="287.3"/>
      <line class="vision-cls-12" x1="183.2" y1="285.4" x2="190.6" y2="289.2"/>
      <line class="vision-cls-12" x1="183.2" y1="287.4" x2="190.2" y2="291.6"/>
    </g>
    <g id="draw-tablet">
      <path class="vision-cls-13" d="M178.2,420.2l14.4-28.4c.9-1.3,1.9-1.4,4.6-1.7l12.1.7c1.5,0,3.7,0,3.6,2.3l-10.2,30.6c-1.3,2.8-3.6,3.4-6.1,2.9l-15.4-2.5C179.6,423.3,178.2,422.2,178.2,420.2Z" transform="translate(-64.5 -69.4)"/>
      <polygon class="vision-cls-14" points="117.6 352.3 130.3 323.3 143.9 323.8 132.1 354.4 117.6 352.3"/>
      <polygon class="vision-cls-14" points="142.1 329.8 144.4 323.7 147.1 323.8 144.9 329.8 142.1 329.8"/>
      <polygon class="vision-cls-14" points="132.9 354.5 136.5 344.9 139.6 345.1 136.1 354.9 132.9 354.5"/>
      <polygon class="vision-cls-14" points="136.7 344.5 142 330 144.6 330.1 139.8 344.5 136.7 344.5"/>
      <polygon class="vision-cls-15" points="120.1 332.1 141.9 318.4 142.8 315.3 139.1 315.7 119.4 330.8 120.1 332.1"/>
      <path class="vision-cls-13" d="M206.4,387.7l.9-3.1-3.8.5a3.4,3.4,0,0,1,1.9,1.1Z" transform="translate(-64.5 -69.4)"/>
    </g>
    <g id="tablet">
      <path class="vision-cls-16" d="M140.1,425.9l6.3-7.3c1.2-1.6,3.9-2.8,5.4-1.6L174,427.8a3.6,3.6,0,0,1,.6,5.1l-7.1,8.9a3.4,3.4,0,0,1-5,.6l-22-12C138.9,429.2,138.8,427.5,140.1,425.9Z" transform="translate(-64.5 -69.4)"/>
      <polygon class="vision-cls-15" points="78.3 360.3 87.4 348.8 108.3 359.7 99.1 371.3 78.3 360.3"/>
      <circle class="vision-cls-17" cx="80.8" cy="353.8" r="0.9"/>
      <polygon class="vision-cls-18" points="99.6 361.6 102.7 357.7 107 359.9 104 363.7 99.6 361.6"/>
      <polygon class="vision-cls-18" points="85.4 353.7 88.3 350.1 96.9 354.6 93.9 358.3 85.4 353.7"/>
      <polygon class="vision-cls-18" points="94.6 367.9 99 362.2 103.5 364.3 99 370.1 94.6 367.9"/>
      <polygon class="vision-cls-19" points="79.9 359.9 84.7 354.2 93.2 358.8 88.7 364.5 79.9 359.9"/>
      <polygon class="vision-cls-20" points="89.4 365.1 97.7 354.7 101.9 357.1 94.2 367.6 89.4 365.1"/>
    </g>
    <g id="mouse">
      <path class="vision-cls-21" d="M251.8,401.5s-2.1-1.7-5.8,0-7.3,8.2-7.3,8.2-4,6.9.2,11.8,11.5-2.3,11.5-2.3,5.1-8.2,5.6-12.3C256.2,404.8,251.8,401.5,251.8,401.5Z" transform="translate(-64.5 -69.4)"/>
      <polygon class="vision-cls-22" points="184.4 335.9 182 338.8 183.6 339.9 186.7 336.5 184.8 335.2 184.4 335.9"/>
      <line class="vision-cls-23" x1="185.6" y1="335.8" x2="187.8" y2="332.4"/>
      <line class="vision-cls-24" x1="182.7" y1="339.3" x2="180.1" y2="343"/>
    </g>
    <g id="color-pink">
      <polygon class="vision-cls-25" points="215.4 351.3 213.7 354 217.4 353.2 215.4 351.3"/>
      <polygon class="vision-cls-18" points="233.1 340.4 215.4 351.3 215.3 352.5 216.5 352.4 215.9 353.4 217.4 353.2 234.5 342.3 233.1 340.4"/>
      <path class="vision-cls-18" d="M278.9,423.2s-.5-.3-.3-.5" transform="translate(-64.5 -69.4)"/>
      <path class="vision-cls-25" d="M281,421.8l1.9-1.8,2.2-1.4,4.3-2.7,4.3-2.7,2.2-1.4,2.5-.9-1.9,1.8-2.2,1.3-4.4,2.8-4.3,2.7-2.2,1.4Z" transform="translate(-64.5 -69.4)"/>
    </g>
    <g id="color-blue">
      <polygon class="vision-cls-25" points="211.1 340.8 208.6 342.8 212.5 343.3 211.1 340.8"/>
      <polygon class="vision-cls-26" points="231.5 336.3 211.1 340.8 210.7 341.9 211.8 342.2 210.9 342.9 212.5 343.3 232.1 338.6 231.5 336.3"/>
      <path class="vision-cls-26" d="M273.9,412.3s-.4-.6-.1-.7" transform="translate(-64.5 -69.4)"/>
      <g>
        <line class="vision-cls-25" x1="211.8" y1="342.2" x2="231.8" y2="337.6"/>
        <path class="vision-cls-25" d="M276.3,411.6l2.4-1.1,2.5-.6,5-1.1,5-1.2,2.5-.5h2.6l-2.4,1-2.5.6-5,1.2-5,1.1-2.5.6Z" transform="translate(-64.5 -69.4)"/>
      </g>
    </g>
    <g id="color-yelow">
      <polygon class="vision-cls-25" points="199.9 329.3 196.7 330.2 200.1 332.1 199.9 329.3"/>
      <polygon class="vision-cls-27" points="220.3 333.1 199.9 329.3 199 330.1 199.9 330.9 198.8 331.2 200.1 332.1 220 335.5 220.3 333.1"/>
      <path class="vision-cls-27" d="M261.9,399.9s-.1-.6.1-.6" transform="translate(-64.5 -69.4)"/>
      <g>
        <line class="vision-cls-25" x1="199.9" y1="330.9" x2="220.1" y2="334.5"/>
        <path class="vision-cls-25" d="M264.4,400.2H267l2.5.5,5.1.9,5,.9,2.6.4,2.4,1H282l-2.5-.5-5.1-.9-5-.9-2.6-.4Z" transform="translate(-64.5 -69.4)"/>
      </g>
    </g>
  </g>
  <g id="family">
    <circle class="vision-cls-28" cx="133.7" cy="200.1" r="8.3"/>
    <circle class="vision-cls-29" cx="170.1" cy="183.3" r="12.6"/>
    <ellipse class="vision-cls-30" cx="344" cy="116.9" rx="157.3" ry="116.9"/>
    <ellipse class="vision-cls-31" cx="347.2" cy="163.6" rx="106" ry="19.6"/>
    <g id="tree">
      <path class="vision-cls-32" d="M456.1,168.1s7.9,13.8,6,28.1-6,20.1-6,20.1l13.5,2.4s-4.4-16.2-2.4-20.5,2.4-26.2,4.8-26.9S456.1,168.1,456.1,168.1Z" transform="translate(-64.5 -69.4)"/>
      <circle class="vision-cls-33" cx="388.6" cy="77.5" r="30.7"/>
      <circle class="vision-cls-34" cx="416.1" cy="90.7" r="27.5"/>
      <circle class="vision-cls-35" cx="412.2" cy="60.9" r="23.6"/>
    </g>
    <g id="smallboy-vis">
      <line class="vision-cls-1" x1="370.8" y1="159.1" x2="369.9" y2="162.7"/>
      <line class="vision-cls-1" x1="376.2" y1="160.6" x2="375.3" y2="164.3"/>
      <path class="vision-cls-36" d="M452.5,184.8c-1.7-2.6-5.8-4.3-9.1-2.7s-2.9.7-3.9,5c-.5,2,1.7,4.4,2,4.9s-.1.3.5,1.8.2,1.7,3.2,2.6,2.4.9,5.1-1.3c-1,1.7,1.7-1.1,1.7-1.1a31.1,31.1,0,0,0,2.7-3.3C455.7,189,454.3,187.4,452.5,184.8Z" transform="translate(-64.5 -69.4)"/>
      <path class="vision-cls-37" d="M439.5,198.2l-6.6,30.7a6.2,6.2,0,0,0,4.1.9c.5-.1,2.7-11,3.1-11s-1.3,10.6-1,11,3.5,1.1,3.5,1.1l7-28.7a3.8,3.8,0,0,0-1.7-4.5l-.8-.8a15.1,15.1,0,0,1-4.2-1l-.9.2A2.5,2.5,0,0,0,439.5,198.2Z" transform="translate(-64.5 -69.4)"/>
      <path class="vision-cls-4" d="M452,191.5c.5-3.8-1.1-5-1.1-5l-.6-.4H449s-5.2-1.9-6.6-.2-1.2,4.3-1.4,7.1,1.8,3.5,3.9,4.1,3.5-.2,5.3-1.3A11.6,11.6,0,0,0,452,191.5Z" transform="translate(-64.5 -69.4)"/>
      <path class="vision-cls-5" d="M443.6,192.5a2.4,2.4,0,0,0,.8.9l1.1.4a3.5,3.5,0,0,0,2.4-.3,2,2,0,0,1-1.1,1.1,1.9,1.9,0,0,1-1.5.2,3.9,3.9,0,0,1-1.4-.8A1.4,1.4,0,0,1,443.6,192.5Z" transform="translate(-64.5 -69.4)"/>
    </g>
    <g id="girl-vis-2" data-name="girl-vis">
      <line class="vision-cls-1" x1="357" y1="158.2" x2="357" y2="164.3"/>
      <line class="vision-cls-1" x1="367.7" y1="158.1" x2="367.7" y2="164.3"/>
      <path class="vision-cls-2" d="M422.3,162.3l-13.1,57.4s4.3,7.7,16.4,8.5,17-6.8,17-6.8l-14.4-59.1-1.8,1a1.8,1.8,0,0,1-2.2,0Z" transform="translate(-64.5 -69.4)"/>
      <path class="vision-cls-3" d="M435.3,140.8c-3.8-3.5-13.8-4.2-18.3-.3s-6,10.5-5.7,19.5,13.2,5.4,8.8,5.7c-1.6.1-2.5-1.9-3-4.7-1.1-1.1,3.5,3.9,8.6,4.1s10.1-4.7,9.7-4.3a19.3,19.3,0,0,1-2.4,4.9,51,51,0,0,0,6.9-3.1C442.4,161.1,439,144.3,435.3,140.8Z" transform="translate(-64.5 -69.4)"/>
      <path class="vision-cls-4" d="M436,154c-.7-6.3-4.6-8.3-4.6-8.3l-.5-3.3-2.5,3.3s-9-.9-10.5,2.3-1.5,8.5-.8,13a12.8,12.8,0,0,0,9,3.8,13.1,13.1,0,0,0,9.3-4A18.2,18.2,0,0,0,436,154Z" transform="translate(-64.5 -69.4)"/>
      <path class="vision-cls-5" d="M422.3,158.1A4.6,4.6,0,0,0,426,160a2.6,2.6,0,0,0,1.9-.4,4.5,4.5,0,0,0,1.6-1.5,3.5,3.5,0,0,1-1.2,2.2,2.4,2.4,0,0,1-1.1.6h-1.3a3.8,3.8,0,0,1-2.3-.8A3.2,3.2,0,0,1,422.3,158.1Z" transform="translate(-64.5 -69.4)"/>
    </g>
    <g id="smallgirl-vis">
      <line class="vision-cls-1" x1="308.8" y1="158.7" x2="308.8" y2="163.3"/>
      <line class="vision-cls-1" x1="316.7" y1="158.7" x2="316.7" y2="163.3"/>
      <path class="vision-cls-2" d="M373.9,199.7l-9.6,25.2s3.1,3.3,12,3.7,12.5-3,12.5-3l-10.5-25.9-1.4.4a2.2,2.2,0,0,1-1.6,0Z" transform="translate(-64.5 -69.4)"/>
      <path class="vision-cls-3" d="M381.3,188.2c-2-1.9-7.5-2.3-10-.1s-3.3,5.8-3.1,10.9,7.2,2.9,4.8,3.1c-.8.1-1.4-1.1-1.6-2.6s1.9,2.2,4.7,2.3,5.5-2.6,5.3-2.4a8.5,8.5,0,0,1-1.3,2.7,21.1,21.1,0,0,0,3.8-1.7C385.3,199.6,383.4,190.2,381.3,188.2Z" transform="translate(-64.5 -69.4)"/>
      <path class="vision-cls-4" d="M381.8,195.6c-.4-3.5-2.6-4.6-2.6-4.6l-.3-1.9-1.3,1.9s-5-.5-5.8,1.3a17.6,17.6,0,0,0-.4,7.2,6.9,6.9,0,0,0,10-.1A10.8,10.8,0,0,0,381.8,195.6Z" transform="translate(-64.5 -69.4)"/>
      <path class="vision-cls-5" d="M374.2,197.9a2.9,2.9,0,0,0,2.1.8,1.4,1.4,0,0,0,.9-.1,4.6,4.6,0,0,0,1-.7,1.9,1.9,0,0,1-.5,1.3l-.7.5c-.3,0-.6.1-.8,0a2.4,2.4,0,0,1-1.4-.5A1.6,1.6,0,0,1,374.2,197.9Z" transform="translate(-64.5 -69.4)"/>
    </g>
    <g id="boy-vis">
      <line class="vision-cls-1" x1="327.9" y1="158.2" x2="327.9" y2="165"/>
      <line class="vision-cls-1" x1="338.2" y1="158.5" x2="338.2" y2="165.4"/>
      <path class="vision-cls-36" d="M404,142.3c-4.2-3.9-12.2-5.1-17.3-.8s-4.8,2.5-4.8,10.5c0,3.8,4.8,7.1,5.7,7.8s-.1.7,1.6,3,1.1,3,6.8,3.3,4.8.5,8.7-4.5c-1.1,3.4,2.4-2.8,2.4-2.8a40.2,40.2,0,0,0,3.4-7C411.6,148.4,408.3,146.2,404,142.3Z" transform="translate(-64.5 -69.4)"/>
      <path class="vision-cls-37" d="M386.7,171.8l1.6,57.6s3,1.2,7.7-.3c.8-.3.1-20.8.8-20.9s2.2,19.5,3,20.1,6.7.3,6.7.3v-54c0-3.6-2.1-6.7-5-7.4l-1.9-1.1c-.8.4-7,.4-7.8,0l-1.5.9C388.2,167.2,386.6,169.3,386.7,171.8Z" transform="translate(-64.5 -69.4)"/>
      <path class="vision-cls-4" d="M406.1,154.5c-.8-7.1-4.3-8.5-4.3-8.5l-1.2-.4-2.2.4s-10.2-1.1-11.9,2.5-.3,8.2.5,13.2c2.6,2.6,4.8,5.5,8.8,5.5s6.2-1.8,8.9-4.5C405.3,160.6,406.4,157.4,406.1,154.5Z" transform="translate(-64.5 -69.4)"/>
      <path class="vision-cls-5" d="M391.5,159.8a3.3,3.3,0,0,0,1.7,1.6,8.5,8.5,0,0,0,2.3.4,5.9,5.9,0,0,0,2.2-.5,12.5,12.5,0,0,0,1.9-1.5,4.1,4.1,0,0,1-1.5,2.1,4.3,4.3,0,0,1-2.6.9,6.4,6.4,0,0,1-2.7-.7A3,3,0,0,1,391.5,159.8Z" transform="translate(-64.5 -69.4)"/>
    </g>
  </g>
</svg>
